<?xml version="1.0" encoding="UTF-8" standalone="no"?>
<svg
   xmlns:dc="http://purl.org/dc/elements/1.1/"
   xmlns:cc="http://creativecommons.org/ns#"
   xmlns:rdf="http://www.w3.org/1999/02/22-rdf-syntax-ns#"
   xmlns:svg="http://www.w3.org/2000/svg"
   xmlns="http://www.w3.org/2000/svg"
   xmlns:sodipodi="http://sodipodi.sourceforge.net/DTD/sodipodi-0.dtd"
   xmlns:inkscape="http://www.inkscape.org/namespaces/inkscape"
   height="0.052032765in"
   width="0.27021042in"
   inkscape:version="1.0 (4035a4fb49, 2020-05-01)"
   sodipodi:docname="MicroMod-cut.svg"
   xml:space="preserve"
   viewBox="0 0 25.940197 4.9951458"
   y="0px"
   x="0px"
   id="Layer_1"
   version="1.1"><metadata
   id="metadata4675"><rdf:RDF><cc:Work
       rdf:about=""><dc:format>image/svg+xml</dc:format><dc:type
         rdf:resource="http://purl.org/dc/dcmitype/StillImage" /><dc:title></dc:title></cc:Work></rdf:RDF></metadata><defs
   id="defs4673"><clipPath
   id="clipPath4749"
   clipPathUnits="userSpaceOnUse"><g
     id="use4751"
     inkscape:label="Clip"><path
       inkscape:connector-curvature="0"
       d="m 223.32199,107.29367 -2.04311,0.099 -1.88998,0.28803 -1.73982,0.46386 -1.59258,0.62643 -1.44827,0.77575 -1.30693,0.91181 -1.16852,1.03462 -1.03302,1.14417 -0.9005,1.24048 -0.77088,1.32352 -0.64423,1.39332 -0.52051,1.44986 -0.39972,1.49315 -0.28187,1.52318 -0.16698,1.53996 -0.055,1.54349 0.0478,1.66414 0.14685,1.64215 0.25103,1.60838 0.36033,1.56282 0.47476,1.50551 0.59433,1.43638 0.71903,1.3555 0.84886,1.26284 0.98381,1.15838 1.12392,1.04215 1.26912,0.91414 1.41949,0.77435 1.57497,0.62279 1.73558,0.45942 1.90133,0.28429 2.07222,0.0974 2.02448,-0.0916 1.87257,-0.26877 1.72362,-0.43672 1.57759,-0.59547 1.43451,-0.74503 1.29434,-0.88539 1.15714,-1.01655 1.02287,-1.13854 0.89153,-1.25131 0.76312,-1.35491 0.63765,-1.44929 0.51514,-1.5345 0.39555,-1.6105 0.2789,-1.67731 0.16518,-1.73494 0.0544,-1.78336 -0.0559,-1.66067 -0.16878,-1.62264 -0.28331,-1.57509 -0.39954,-1.51797 -0.51739,-1.45133 -0.63691,-1.37516 -0.7581,-1.28945 -0.88095,-1.19421 -1.00546,-1.08942 -1.13162,-0.9751 -1.25945,-0.85125 -1.38893,-0.71787 -1.52008,-0.57493 -1.65288,-0.42247 -1.78735,-0.26048 -1.92348,-0.0889 z m -0.12012,27.45508 -0.83961,-0.0442 -0.78809,-0.13213 -0.73616,-0.21927 -0.68391,-0.30561 -0.63127,-0.39121 -0.5783,-0.476 -0.52493,-0.56003 -0.47121,-0.64326 -0.41714,-0.72574 -0.36269,-0.80742 -0.30789,-0.88833 -0.25273,-0.96846 -0.19719,-1.04782 -0.1413,-1.12639 -0.085,-1.20419 -0.0284,-1.28121 0.0283,-1.10387 0.0844,-1.04978 0.13985,-0.99332 0.19459,-0.93451 0.24869,-0.87333 0.30209,-0.80979 0.35482,-0.74387 0.40686,-0.67561 0.45822,-0.60498 0.50891,-0.53198 0.55893,-0.45662 0.60825,-0.3789 0.6569,-0.29881 0.70488,-0.21636 0.75217,-0.13155 0.7988,-0.0444 0.8574,0.0397 0.79979,0.11892 0.74251,0.19776 0.68552,0.27622 0.62886,0.35434 0.57251,0.43209 0.51649,0.50947 0.46077,0.5865 0.40537,0.66317 0.35031,0.73946 0.29553,0.81541 0.24109,0.89098 0.18696,0.9662 0.13317,1.04107 0.0797,1.11554 0.0265,1.18968 -0.0281,1.26927 -0.0837,1.19324 -0.13864,1.11642 -0.19293,1.03877 -0.24652,0.96033 -0.29944,0.88107 -0.35165,0.801 -0.4032,0.72012 -0.45406,0.63844 -0.50424,0.55593 -0.55371,0.47264 -0.60253,0.3885 -0.65065,0.30359 -0.69809,0.21785 -0.74484,0.1313 -0.79091,0.0439 z"
       id="path4755" /></g></clipPath>





</defs><sodipodi:namedview
   lock-margins="true"
   inkscape:document-rotation="0"
   units="in"
   inkscape:snap-others="false"
   inkscape:object-nodes="false"
   fit-margin-bottom="0"
   fit-margin-right="0"
   fit-margin-left="0"
   fit-margin-top="0"
   inkscape:current-layer="g4656"
   inkscape:window-maximized="1"
   inkscape:window-y="-8"
   inkscape:window-x="1912"
   inkscape:cy="37.510145"
   inkscape:cx="63.086156"
   inkscape:zoom="7.1583651"
   showgrid="false"
   id="namedview4671"
   inkscape:window-height="1057"
   inkscape:window-width="1920"
   inkscape:pageshadow="2"
   inkscape:pageopacity="0"
   guidetolerance="10"
   gridtolerance="10"
   objecttolerance="10"
   borderopacity="1"
   bordercolor="#666666"
   pagecolor="#ffffff" />
<g
   transform="translate(-99.571109,-136.97928)"
   id="g4656">
	
	
	
	
	
	
	<path
   inkscape:connector-curvature="0"
   id="path5374"
   d="m 106.25297,139.87588 h -0.92491 l -0.009,0.0753 -0.008,0.20233 0.006,0.2079 0.0179,0.19656 0.0299,0.18456 0.0414,0.17278 0.0539,0.16041 0.066,0.14782 0.0785,0.13524 0.0906,0.12199 0.10322,0.10861 0.11602,0.095 0.12843,0.0813 0.14141,0.0669 0.15422,0.0526 0.16724,0.0378 0.18022,0.0231 0.19344,0.008 0.16227,-0.006 0.15196,-0.0163 0.14184,-0.0265 0.13212,-0.0364 0.12243,-0.0456 0.11292,-0.0543 0.10405,-0.0626 0.095,-0.0702 0.0861,-0.0774 0.0778,-0.0842 0.0694,-0.0904 0.0615,-0.096 0.0534,-0.10136 0.046,-0.10591 0.0386,-0.11006 0.0316,-0.11374 0.004,-0.0174 0.002,-0.0171 -0.002,-0.0166 -0.004,-0.0162 -0.005,-0.0159 -0.006,-0.0148 -0.008,-0.0141 -0.009,-0.0132 -0.0109,-0.0123 -0.0121,-0.0111 -0.0134,-0.009 -0.0145,-0.008 -0.0154,-0.007 -0.0162,-0.005 -0.0169,-0.004 -0.0177,-0.002 h -0.0381 -0.038 -0.038 -0.0382 -0.0381 -0.0382 -0.038 -0.038 -0.0382 -0.0381 -0.0381 -0.0382 -0.0381 -0.0383 -0.0381 -0.0382 l -0.0123,4.3e-4 -0.0123,0.002 -0.0119,0.003 -0.0115,0.004 -0.0112,0.005 -0.0105,0.005 -0.0102,0.006 -0.01,0.007 -0.009,0.008 -0.009,0.008 -0.008,0.009 -0.008,0.009 -0.006,0.0102 -0.006,0.0105 -0.005,0.0111 -0.005,0.0119 -0.0158,0.0506 -0.0175,0.0486 -0.0192,0.0466 -0.0212,0.0446 -0.0233,0.0421 -0.026,0.0392 -0.0285,0.0367 -0.0316,0.0335 -0.0348,0.0303 -0.038,0.0268 -0.0417,0.0231 -0.0456,0.0196 -0.0497,0.0152 -0.0541,0.0115 -0.0584,0.007 -0.0634,0.002 -0.0753,-0.005 -0.0712,-0.0119 -0.0672,-0.0197 -0.0631,-0.0281 -0.0584,-0.0366 -0.0541,-0.0457 -0.0495,-0.0547 -0.0448,-0.0642 -0.0399,-0.0734 -0.035,-0.0834 -0.0298,-0.0935 -0.0247,-0.10364 -0.0195,-0.11414 -0.0141,-0.12493 -0.009,-0.13604 -0.004,-0.1472 0.002,-0.11749 0.007,-0.1125 z"
   style="fill:#000000;fill-opacity:1;stroke:#ff0000;stroke-width:0.0274478;stroke-miterlimit:4;stroke-dasharray:none;stroke-opacity:1" /><path
   inkscape:connector-curvature="0"
   id="polygon4642"
   d="m 106.93651,138.33864 -0.18477,0.009 -0.17505,0.0247 -0.16518,0.0401 -0.15504,0.0555 -0.14431,0.0701 -0.13356,0.0844 -0.12225,0.0985 -0.11066,0.11187 -0.0989,0.12471 -0.0869,0.1373 -0.074,0.14926 -0.0615,0.16083 -0.0482,0.17176 -0.0348,0.1825 -0.013,0.11747 h 0.92492 l 0.0104,-0.0943 0.0166,-0.10137 0.0216,-0.0954 0.0269,-0.089 0.0324,-0.0822 0.0379,-0.0749 0.0436,-0.0674 0.0493,-0.0596 0.0553,-0.0515 0.0612,-0.0432 0.0674,-0.034 0.0741,-0.0246 0.0805,-0.0153 0.0871,-0.005 0.0621,0.003 0.0582,0.008 0.0536,0.012 0.0496,0.0161 0.0456,0.0204 0.0418,0.0244 0.0384,0.0276 0.0347,0.0313 0.0316,0.0343 0.0278,0.0371 0.0255,0.0398 0.022,0.0421 0.0194,0.044 0.0167,0.046 0.0142,0.0475 0.0119,0.0485 0.004,0.0128 0.005,0.0123 0.006,0.0119 0.006,0.0112 0.007,0.0108 0.008,0.01 0.009,0.009 0.009,0.009 0.01,0.008 0.0105,0.007 0.0112,0.006 0.0116,0.005 0.012,0.005 0.0126,0.004 0.0128,0.003 0.0132,4.5e-4 h 0.0388 0.0386 0.0388 0.0389 0.0387 0.0389 0.0385 0.0389 0.0387 0.0389 0.0387 0.0389 0.0389 0.0386 0.0389 0.0386 l 0.0171,-0.002 0.0166,-0.004 0.0156,-0.005 0.0148,-0.006 0.0141,-0.008 0.013,-0.009 0.0121,-0.0104 0.0108,-0.0116 0.009,-0.0129 0.008,-0.0134 0.007,-0.0145 0.005,-0.0153 0.004,-0.0159 0.002,-0.0162 v -0.0168 l -0.002,-0.0169 -0.0186,-0.0923 -0.0254,-0.0948 -0.0331,-0.0964 -0.041,-0.0964 -0.05,-0.0956 -0.0589,-0.0933 -0.0687,-0.0902 -0.0791,-0.0857 -0.09,-0.0799 -0.10155,-0.0732 -0.11336,-0.0653 -0.12613,-0.056 -0.13916,-0.0453 -0.15298,-0.0341 -0.16703,-0.0212 z"
   style="fill:#000000;fill-opacity:1;stroke:#ff0000;stroke-width:0.0274478;stroke-miterlimit:4;stroke-dasharray:none;stroke-opacity:1" /><path
   inkscape:connector-curvature="0"
   id="path5379"
   d="m 109.57726,139.82881 h -0.97116 v 0.0274 0.13481 0.13481 0.13482 0.13481 0.13481 0.13483 0.1348 0.13481 0.13483 0.13479 0.13483 0.13481 0.13481 0.13483 l 4.5e-4,0.0152 0.003,0.0147 0.004,0.0142 0.005,0.0137 0.006,0.0131 0.008,0.0125 0.009,0.0115 0.01,0.0107 0.0106,0.01 0.0115,0.009 0.0123,0.008 0.013,0.006 0.0138,0.005 0.014,0.004 0.0148,0.002 0.0153,0.002 h 0.0386 0.0385 0.0387 0.0386 0.0385 0.0386 0.0388 0.0386 0.0385 0.0387 0.0386 0.0386 0.0386 0.0388 0.0386 0.0386 l 0.0152,-0.002 0.0147,-0.002 0.0141,-0.004 0.0137,-0.005 0.0129,-0.006 0.0123,-0.008 0.0117,-0.009 0.0107,-0.01 0.009,-0.0107 0.009,-0.0115 0.008,-0.0125 0.006,-0.0131 0.005,-0.0137 0.004,-0.0142 0.002,-0.0147 0.002,-0.0152 v -0.0896 -0.0898 -0.0898 -0.0896 -0.0898 -0.0898 -0.0896 -0.0898 -0.0898 -0.0896 -0.0898 -0.0898 -0.0896 -0.0898 -0.0898 -0.0896 l 0.004,-0.13419 0.01,-0.12326 0.0168,-0.11253 0.0236,-0.10236 z"
   style="fill:#000000;fill-opacity:1;stroke:#ff0000;stroke-width:0.0274478;stroke-miterlimit:4;stroke-dasharray:none;stroke-opacity:1" /><path
   inkscape:connector-curvature="0"
   id="polygon4644"
   d="m 110.41731,138.35867 -0.0161,0.002 -0.095,0.0143 -0.0892,0.0198 -0.0832,0.0254 -0.0777,0.0305 -0.0723,0.0346 -0.0666,0.0389 -0.0617,0.0421 -0.0566,0.0449 -0.0519,0.0475 -0.047,0.0496 -0.0424,0.0511 -0.0379,0.0519 -0.034,0.0522 -0.0296,0.0522 -0.0257,0.0516 -0.0219,0.0506 v -0.0324 l -2.3e-4,-0.032 -2.2e-4,-0.032 -2e-4,-0.0313 -2.7e-4,-0.0313 -2.8e-4,-0.0309 -4.4e-4,-0.0305 -4.5e-4,-0.0298 -4.4e-4,-0.0296 -0.002,-0.0288 -0.002,-0.0285 -0.002,-0.0278 -0.002,-0.0274 -0.002,-0.0268 -0.002,-0.0262 -0.002,-0.0256 -0.002,-0.0145 -0.004,-0.0141 -0.005,-0.0134 -0.006,-0.0131 -0.007,-0.0123 -0.008,-0.0115 -0.009,-0.0108 -0.009,-0.01 -0.0106,-0.009 -0.0112,-0.008 -0.0119,-0.007 -0.0126,-0.006 -0.013,-0.005 -0.0138,-0.004 -0.0141,-0.002 -0.0145,-0.002 h -0.0375 -0.0376 -0.0377 -0.0376 -0.0377 -0.0376 -0.0378 -0.0376 -0.0376 -0.0377 -0.0375 -0.0376 -0.0375 -0.0376 -0.0377 -0.0375 l -0.0155,0.002 -0.0148,0.002 -0.0145,0.004 -0.0138,0.005 -0.0132,0.006 -0.0125,0.008 -0.0117,0.009 -0.0105,0.01 -0.009,0.0108 -0.009,0.0119 -0.008,0.0124 -0.006,0.0134 -0.005,0.0138 -0.004,0.0146 -0.002,0.0148 -2.2e-4,0.0153 0.002,0.0453 0.002,0.0476 0.002,0.0499 0.002,0.0522 4.4e-4,0.0547 4.4e-4,0.0572 4.5e-4,0.0596 2.8e-4,0.0624 2.1e-4,0.0649 2e-4,0.0677 2.2e-4,0.0706 2.3e-4,0.0733 v 0.0763 l 1.9e-4,0.0793 v 0.0822 0.0855 0.13482 0.10736 h 0.97116 l 0.0281,-0.0854 0.0374,-0.083 0.0447,-0.0736 0.0518,-0.0648 0.059,-0.0565 0.0662,-0.0482 0.0736,-0.0406 0.0812,-0.0333 0.0888,-0.026 0.0964,-0.0196 0.10425,-0.0132 0.11211,-0.008 0.0147,-0.002 0.0142,-0.004 0.0138,-0.005 0.0131,-0.006 0.0126,-0.006 0.0119,-0.008 0.011,-0.009 0.0101,-0.009 0.009,-0.0106 0.009,-0.0112 0.007,-0.012 0.006,-0.0129 0.005,-0.0132 0.004,-0.0141 0.002,-0.0142 0.002,-0.0148 v -0.0389 l -2.4e-4,-0.0389 v -0.0389 -0.0389 -0.0388 -0.0389 -0.0389 -0.0389 -0.0389 -0.0388 -0.0389 -0.0389 -0.039 -0.0389 -0.0388 -0.0389 l -0.002,-0.0161 -0.002,-0.0159 -0.005,-0.0153 -0.006,-0.0144 -0.007,-0.0137 -0.009,-0.0127 -0.009,-0.0119 -0.0108,-0.0111 -0.0119,-0.01 -0.0126,-0.009 -0.0133,-0.007 -0.0141,-0.006 -0.0148,-0.005 -0.0153,-0.004 z"
   style="fill:#000000;fill-opacity:1;stroke:#ff0000;stroke-width:0.0274478;stroke-miterlimit:4;stroke-dasharray:none;stroke-opacity:1" /><path
   inkscape:connector-curvature="0"
   style="fill:#000000;fill-opacity:1;stroke:#ff0000;stroke-width:0.0274478;stroke-miterlimit:4;stroke-dasharray:none;stroke-opacity:1"
   id="path4785"
   d="m 113.7891,140.03919 h -0.92388 l 0.002,0.0669 -0.004,0.13422 -0.009,0.12612 -0.0147,0.11788 -0.0204,0.10984 -0.0259,0.10157 -0.0316,0.0931 -0.0375,0.0846 -0.0426,0.0763 -0.0478,0.0675 -0.0534,0.0586 -0.0585,0.0499 -0.0639,0.0411 -0.0687,0.0324 -0.0736,0.0231 -0.0789,0.0141 -0.0834,0.005 h -2.2e-4 l -0.0886,-0.005 -0.0834,-0.0138 -0.0777,-0.0233 -0.0723,-0.0322 -0.0666,-0.0412 -0.0611,-0.0504 -0.0557,-0.0593 -0.0497,-0.0678 -0.0442,-0.0769 -0.0384,-0.0853 -0.0324,-0.094 -0.0268,-0.10239 -0.0209,-0.11066 -0.0148,-0.11912 -0.009,-0.12719 -0.004,-0.13541 0.002,-0.0577 h -0.92841 l -0.004,0.0807 0.005,0.17588 0.0154,0.17344 0.0266,0.1701 0.038,0.16517 0.0503,0.15917 0.0631,0.15174 0.076,0.14326 0.0896,0.13359 0.10406,0.12241 0.11871,0.11026 0.1342,0.0966 0.15008,0.0818 0.1664,0.0659 0.18353,0.0483 0.2011,0.0303 0.21883,0.0104 0.2141,-0.01 0.19799,-0.0284 0.18209,-0.0462 0.16681,-0.0627 0.15151,-0.0789 0.1369,-0.0935 0.12242,-0.10757 0.10799,-0.12035 0.0943,-0.13214 0.0806,-0.1433 0.0672,-0.15316 0.0546,-0.16228 0.0417,-0.17012 0.0295,-0.17734 0.0175,-0.18333 0.006,-0.18849 z" /><path
   inkscape:connector-curvature="0"
   style="fill:#000000;fill-opacity:1;stroke:#ff0000;stroke-width:0.0274478;stroke-miterlimit:4;stroke-dasharray:none;stroke-opacity:1"
   id="path4646"
   d="m 112.16658,138.33864 -0.21596,0.0105 -0.19982,0.0305 -0.18397,0.0491 -0.16824,0.066 -0.15299,0.0821 -0.13833,0.0962 -0.12344,0.10942 -0.10922,0.12097 -0.0952,0.13111 -0.0815,0.13998 -0.0679,0.14721 -0.0551,0.15319 -0.0423,0.15792 -0.0297,0.16106 -0.0175,0.16266 -0.004,0.0826 h 0.92843 l 0.002,-0.0591 0.009,-0.11086 0.0145,-0.1051 0.0205,-0.0987 0.0263,-0.0923 0.032,-0.0857 0.0377,-0.0786 0.043,-0.0715 0.0483,-0.0639 0.0537,-0.0563 0.059,-0.0482 0.0646,-0.0401 0.0695,-0.0316 0.0745,-0.0229 0.0795,-0.014 0.0844,-0.005 0.0906,0.005 0.0846,0.0126 0.0784,0.0209 0.0726,0.0292 0.0665,0.0376 0.0604,0.0456 0.0545,0.0539 0.0486,0.0619 0.0431,0.0702 0.037,0.078 0.0312,0.0863 0.0258,0.0942 0.0196,0.1022 0.0141,0.11002 0.009,0.1179 0.002,0.0586 h 0.92386 l -0.004,-0.11439 -0.0179,-0.17137 -0.0299,-0.16661 -0.042,-0.1604 -0.0547,-0.15341 -0.0672,-0.14533 -0.0802,-0.13647 -0.0931,-0.12613 -0.10631,-0.11521 -0.11974,-0.10302 -0.13297,-0.09 -0.14699,-0.0759 -0.16061,-0.0609 -0.17468,-0.0447 -0.18889,-0.0274 z" /><path
   inkscape:connector-curvature="0"
   id="path5390"
   d="m 114.85563,139.50756 h -0.85864 v 0.0772 0.26985 0.26982 0.26983 0.27005 0.26983 0.26986 0.26982 0.26982 l 0.002,0.0153 0.003,0.0147 0.004,0.0142 0.005,0.0137 0.006,0.0131 0.008,0.0125 0.009,0.0115 0.01,0.0105 0.0105,0.01 0.0115,0.009 0.0123,0.008 0.0126,0.006 0.0138,0.005 0.0141,0.004 0.0146,0.003 0.0153,0.002 h 0.0352 0.0355 0.0352 0.0355 0.0352 0.0355 0.0352 0.0355 0.0352 0.0355 0.0352 0.0356 0.0352 0.0355 0.0352 0.0355 l 0.0148,-0.002 0.0149,-0.003 0.0141,-0.004 0.0137,-0.005 0.013,-0.006 0.0124,-0.008 0.0115,-0.009 0.0106,-0.01 0.01,-0.0105 0.009,-0.0115 0.008,-0.0125 0.007,-0.0131 0.005,-0.0137 0.004,-0.0142 0.003,-0.0147 4.5e-4,-0.0153 v -0.0933 -0.0935 -0.0935 -0.0933 -0.0935 -0.0935 -0.0933 -0.0935 -0.0935 -0.0933 -0.0935 -0.0935 -0.0933 -0.0935 -0.0935 -0.0933 l -2.1e-4,-0.15156 -4.5e-4,-0.15504 -0.002,-0.15815 -0.002,-0.1598 z"
   style="fill:#000000;fill-opacity:1;stroke:#ff0000;stroke-width:0.0274478;stroke-miterlimit:4;stroke-dasharray:none;stroke-opacity:1" /><path
   inkscape:connector-curvature="0"
   id="path5388"
   d="m 115.20143,139.50756 h 0.81322 l -0.0276,-0.11292 -0.0564,-0.22296 -0.0589,-0.2275 -0.0604,-0.23023 -0.0622,-0.23122 -0.0628,-0.22997 -0.0633,-0.22711 -0.0632,-0.22192 -0.0628,-0.21534 -0.0617,-0.20667 -0.005,-0.0117 -0.005,-0.011 -0.006,-0.0104 -0.007,-0.01 -0.008,-0.009 -0.008,-0.009 -0.009,-0.008 -0.009,-0.008 -0.01,-0.006 -0.0101,-0.006 -0.0106,-0.005 -0.0109,-0.005 -0.0115,-0.004 -0.0119,-0.002 -0.0121,-0.002 -0.0123,-2.7e-4 h -0.0717 -0.0718 -0.0717 -0.0717 -0.0718 -0.0717 -0.0718 -0.0717 -0.0717 -0.0719 -0.0717 -0.0719 -0.0717 -0.0718 -0.0717 -0.0717 l -0.0152,4.6e-4 -0.0146,0.003 -0.0143,0.004 -0.0138,0.005 -0.0128,0.006 -0.0125,0.008 -0.0115,0.009 -0.0106,0.009 -0.01,0.0105 -0.009,0.0117 -0.008,0.0123 -0.006,0.013 -0.005,0.0137 -0.004,0.0143 -0.002,0.0148 -0.002,0.015 v 0.27004 0.26982 0.26983 0.26985 0.26982 0.26984 0.27004 0.19262 h 0.85864 l -4.5e-4,-0.0446 -0.002,-0.16061 -0.004,-0.15959 -0.004,-0.15752 -0.004,-0.15464 -0.005,-0.15051 -0.005,-0.14554 -0.006,-0.13978 -0.006,-0.13273 -0.006,-0.12492 -0.007,-0.11602 -0.008,-0.10632 h 0.003 0.002 0.002 0.002 0.003 0.003 0.002 0.002 0.002 0.003 0.003 0.002 0.002 0.002 0.003 0.003 l 0.0376,0.18086 0.0432,0.20024 0.0483,0.21741 0.0531,0.23184 0.0567,0.24425 0.06,0.25392 0.0628,0.26116 z"
   style="fill:#000000;fill-opacity:1;stroke:#ff0000;stroke-width:0.0274478;stroke-miterlimit:4;stroke-dasharray:none;stroke-opacity:1" /><path
   inkscape:connector-curvature="0"
   id="path5386"
   d="m 117.30726,139.50756 h -0.73353 l -0.0432,0.15052 -0.0576,0.20728 -0.0522,0.19447 -0.046,0.17941 -0.039,0.16186 -0.0313,0.14245 -0.0226,0.12036 h -2.7e-4 -2.9e-4 -2.5e-4 -2.7e-4 -2.9e-4 -4.4e-4 -2.6e-4 -2.8e-4 -2.8e-4 -2.6e-4 -2.7e-4 -2.9e-4 -2.6e-4 -2.8e-4 -2.7e-4 -2.8e-4 l -0.0265,-0.13666 -0.032,-0.15484 -0.0374,-0.17095 -0.042,-0.18519 -0.0464,-0.19737 -0.0504,-0.20787 -0.0256,-0.10347 h -0.81323 l 0.0641,0.26324 0.066,0.26839 0.0668,0.2686 0.0666,0.26611 0.0662,0.26116 0.0653,0.25394 0.0632,0.24423 0.0609,0.23185 0.0578,0.21739 0.004,0.0121 0.005,0.0115 0.006,0.011 0.007,0.0104 0.008,0.009 0.008,0.009 0.009,0.009 0.009,0.008 0.01,0.007 0.0104,0.006 0.0108,0.005 0.0116,0.005 0.0116,0.004 0.012,0.002 0.0123,0.003 0.0127,2.6e-4 h 0.0367 0.0368 0.0367 0.037 0.0367 0.0368 0.0367 0.037 0.0367 0.0368 0.0367 0.037 0.0368 0.0368 0.0367 0.037 l 0.0122,-2.6e-4 0.0119,-0.002 0.0119,-0.003 0.0116,-0.004 0.0111,-0.005 0.0106,-0.005 0.0102,-0.006 0.01,-0.006 0.009,-0.008 0.009,-0.008 0.008,-0.009 0.007,-0.009 0.007,-0.01 0.006,-0.0104 0.005,-0.0111 0.005,-0.0117 0.0748,-0.24587 0.0753,-0.25249 0.076,-0.25765 0.0761,-0.26096 0.0757,-0.26303 0.0745,-0.26342 0.0732,-0.26241 0.0712,-0.25951 z"
   style="fill:#000000;fill-opacity:1;stroke:#ff0000;stroke-width:0.0274478;stroke-miterlimit:4;stroke-dasharray:none;stroke-opacity:1" /><path
   inkscape:connector-curvature="0"
   id="path5384"
   d="m 118.60935,139.50756 h -0.90322 l -2.9e-4,0.0537 -0.002,0.15464 -4.5e-4,0.15359 -2.8e-4,0.15153 -2.2e-4,0.14865 v 0.0985 0.0983 0.0985 0.0983 0.0985 0.0983 0.0985 0.0983 0.0985 0.0983 0.0985 0.0982 0.0985 0.0982 0.0985 0.0983 l 0.002,0.0154 0.003,0.0145 0.004,0.0141 0.005,0.0137 0.006,0.013 0.008,0.0125 0.009,0.0115 0.01,0.0105 0.0105,0.01 0.0115,0.009 0.0123,0.008 0.013,0.006 0.0137,0.005 0.0142,0.004 0.0147,0.002 0.0152,0.002 h 0.0379 0.038 0.0382 0.0379 0.038 0.0381 0.038 0.038 0.0379 0.0382 0.038 0.0378 0.0382 0.038 0.0379 0.0382 l 0.0148,-0.002 0.0148,-0.002 0.0142,-0.004 0.0137,-0.005 0.0131,-0.006 0.0123,-0.008 0.0115,-0.009 0.0109,-0.01 0.009,-0.0105 0.009,-0.0115 0.008,-0.0125 0.006,-0.013 0.005,-0.0137 0.003,-0.0141 0.003,-0.0145 4.4e-4,-0.0154 v -0.26983 -0.26984 -0.26986 -0.27002 -0.26985 -0.26983 -0.26983 -0.26983 z"
   style="fill:#000000;fill-opacity:1;stroke:#ff0000;stroke-width:0.0274478;stroke-miterlimit:4;stroke-dasharray:none;stroke-opacity:1" /><path
   inkscape:connector-curvature="0"
   id="polygon4648"
   d="m 118.39236,137.27706 -0.0695,2.1e-4 h -0.0684 -0.0684 -0.0683 -0.0685 -0.0683 -0.0684 -0.0684 -0.0686 -0.0683 -0.0684 -0.0686 -0.0683 -0.0684 -0.0684 l -0.0121,2.6e-4 -0.0119,0.002 -0.0116,0.002 -0.0116,0.004 -0.0109,0.005 -0.0105,0.005 -0.01,0.006 -0.01,0.006 -0.009,0.008 -0.009,0.008 -0.008,0.009 -0.008,0.009 -0.007,0.01 -0.006,0.0105 -0.005,0.0108 -0.005,0.0115 -0.0664,0.21038 -0.0695,0.22049 -0.0712,0.22791 -0.0723,0.23328 -0.0727,0.23662 -0.0723,0.23719 -0.071,0.23578 -0.0687,0.23207 -0.0659,0.22626 -0.0193,0.0672 h 0.73349 l 0.011,-0.0404 0.0663,-0.24959 0.0632,-0.24217 0.0594,-0.2335 0.0555,-0.22297 0.0508,-0.211 0.0456,-0.19757 0.0404,-0.18271 h 0.002 0.003 0.002 0.003 0.002 0.002 0.003 0.002 0.003 0.002 0.002 0.003 0.002 0.002 0.002 0.003 l -0.004,0.1022 -0.004,0.11106 -0.004,0.11912 -0.004,0.12655 -0.004,0.13296 -0.004,0.13875 -0.002,0.14348 -0.003,0.14741 -0.002,0.1505 -0.002,0.15278 -0.002,0.15422 -0.002,0.10094 h 0.90324 v -0.19262 -0.27003 -0.26982 -0.26985 -0.26983 -0.26983 -0.27005 -0.26982 l -4.4e-4,-0.0149 -0.002,-0.0148 -0.004,-0.0141 -0.005,-0.0137 -0.006,-0.013 -0.008,-0.0124 -0.009,-0.0117 -0.009,-0.0105 -0.0108,-0.009 -0.0116,-0.009 -0.0123,-0.008 -0.013,-0.006 -0.0137,-0.005 -0.0141,-0.004 -0.0149,-0.002 -0.0149,-0.002 z"
   style="fill:#000000;fill-opacity:1;stroke:#ff0000;stroke-width:0.0274478;stroke-miterlimit:4;stroke-dasharray:none;stroke-opacity:1" /><path
   inkscape:connector-curvature="0"
   style="fill:#000000;fill-opacity:1;stroke:#ff0000;stroke-width:0.0274478;stroke-miterlimit:4;stroke-dasharray:none;stroke-opacity:1"
   id="path4790"
   d="m 122.09242,140.07946 h -0.92452 l 4.5e-4,0.0268 -0.004,0.13423 -0.009,0.12613 -0.0145,0.11789 -0.0204,0.10982 -0.0259,0.10158 -0.0316,0.0931 -0.0374,0.0846 -0.0427,0.0763 -0.0478,0.0674 -0.0534,0.0586 -0.0585,0.05 -0.0638,0.0411 -0.0686,0.0323 -0.0736,0.0232 -0.0789,0.0141 -0.0834,0.005 h -2.1e-4 l -0.0886,-0.005 -0.0834,-0.0138 -0.0777,-0.0234 -0.0723,-0.0323 -0.0666,-0.0413 -0.0611,-0.0504 -0.0554,-0.0593 -0.0497,-0.0679 -0.0442,-0.0768 -0.0384,-0.0853 -0.0324,-0.0939 -0.0268,-0.10242 -0.0209,-0.11065 -0.0148,-0.11912 -0.009,-0.12719 -0.004,-0.13543 2.6e-4,-0.0176 h -0.92882 l -0.002,0.0404 0.005,0.17592 0.0155,0.17341 0.0266,0.1701 0.038,0.16517 0.0503,0.15917 0.063,0.15175 0.076,0.14326 0.0896,0.13358 0.10406,0.12242 0.1187,0.11025 0.1342,0.0966 0.15008,0.0818 0.16641,0.0659 0.18353,0.0483 0.2011,0.0302 0.21883,0.0104 0.2141,-0.01 0.19798,-0.0284 0.1821,-0.0462 0.1668,-0.0628 0.15155,-0.0789 0.13688,-0.0935 0.12241,-0.10757 0.10798,-0.12037 0.0944,-0.13211 0.0805,-0.14328 0.0674,-0.1532 0.0546,-0.16226 0.0417,-0.17011 0.0296,-0.17736 0.0176,-0.18332 0.006,-0.1885 z" /><path
   inkscape:connector-curvature="0"
   style="fill:#000000;fill-opacity:1;stroke:#ff0000;stroke-width:0.0274478;stroke-miterlimit:4;stroke-dasharray:none;stroke-opacity:1"
   id="path4650"
   d="m 120.46846,138.33864 -0.21597,0.0105 -0.19983,0.0305 -0.18395,0.0491 -0.16826,0.066 -0.15298,0.0821 -0.13832,0.0962 -0.12345,0.10942 -0.10922,0.12097 -0.0952,0.13111 -0.0816,0.13998 -0.0677,0.14721 -0.0551,0.15319 -0.0423,0.15792 -0.0298,0.16106 -0.0177,0.16266 -0.005,0.12283 h 0.92882 l 0.004,-0.0993 0.009,-0.11085 0.0147,-0.10509 0.0206,-0.0987 0.0262,-0.0923 0.032,-0.0857 0.0376,-0.0787 0.0431,-0.0715 0.0484,-0.0639 0.0537,-0.0563 0.059,-0.0482 0.0646,-0.0401 0.0694,-0.0316 0.0745,-0.0227 0.0795,-0.0139 0.0844,-0.005 0.0906,0.005 0.0847,0.0127 0.0785,0.0209 0.0726,0.0291 0.0665,0.0377 0.0604,0.0456 0.0546,0.0539 0.0485,0.0619 0.0431,0.0702 0.037,0.078 0.0312,0.0863 0.0256,0.0941 0.0198,0.10219 0.0141,0.11003 0.009,0.11791 0.003,0.0989 h 0.92449 l -0.005,-0.15463 -0.0179,-0.17134 -0.0298,-0.16662 -0.042,-0.1604 -0.0548,-0.1534 -0.0672,-0.14534 -0.0802,-0.13646 -0.0931,-0.12614 -0.10632,-0.11521 -0.11975,-0.10302 -0.13296,-0.09 -0.147,-0.0759 -0.1606,-0.0609 -0.17467,-0.0446 -0.18891,-0.0273 z" /><path
   inkscape:connector-curvature="0"
   style="fill:#000000;fill-opacity:1;stroke:#ff0000;stroke-width:0.0274478;stroke-miterlimit:4;stroke-dasharray:none;stroke-opacity:1"
   id="path4795"
   d="m 125.47989,140.13168 h -0.87311 l -0.002,0.12388 -0.005,0.11766 -0.009,0.11087 -0.0129,0.10386 -0.0176,0.0966 -0.0232,0.0894 -0.0288,0.0815 -0.0355,0.0739 -0.0427,0.0659 -0.05,0.0576 -0.0581,0.0494 -0.0666,0.041 -0.0757,0.032 -0.0854,0.0231 -0.0956,0.0141 -0.10655,0.005 -0.0896,-0.005 -0.0833,-0.0148 -0.0768,-0.0247 -0.0709,-0.0341 -0.0647,-0.0432 -0.0585,-0.0516 -0.0526,-0.06 -0.0466,-0.0678 -0.041,-0.0756 -0.0352,-0.083 -0.0295,-0.09 -0.0242,-0.0966 -0.0184,-0.1028 -0.0132,-0.10901 -0.008,-0.1146 -0.002,-0.11208 h -0.93507 l -0.002,0.0242 0.006,0.19781 0.0161,0.18911 0.0268,0.17959 0.0374,0.16972 0.048,0.15938 0.0586,0.14844 0.0689,0.13686 0.0795,0.12471 0.09,0.11211 0.10034,0.0989 0.11065,0.0853 0.12078,0.071 0.1313,0.0562 0.14122,0.0407 0.15131,0.0251 0.16167,0.009 0.10052,-0.002 0.0937,-0.006 0.0876,-0.01 0.0815,-0.0138 0.076,-0.0177 0.0704,-0.0213 0.0653,-0.0252 0.0602,-0.0288 0.0559,-0.0323 0.0514,-0.036 0.0476,-0.0392 0.0441,-0.0428 0.0404,-0.046 0.0374,-0.0492 0.0345,-0.0522 0.0324,-0.0555 v 0.0139 l 2.1e-4,0.0148 2.6e-4,0.0154 4.5e-4,0.0163 4.4e-4,0.0166 0.002,0.0173 0.002,0.0177 0.002,0.018 0.002,0.0184 0.002,0.0184 0.002,0.0184 0.002,0.0186 0.002,0.0186 0.002,0.0183 0.003,0.0181 0.002,0.0179 0.002,0.0141 0.004,0.0137 0.005,0.0131 0.006,0.0126 0.007,0.0119 0.008,0.0112 0.009,0.0104 0.009,0.009 0.0104,0.009 0.0111,0.008 0.0119,0.007 0.0125,0.006 0.0131,0.005 0.0134,0.004 0.0138,0.002 0.014,4.5e-4 h 0.0377 0.0381 0.0377 0.0377 0.0378 0.0378 0.0377 0.0378 0.0378 0.0377 0.0377 0.038 0.0377 0.0377 0.0378 0.0377 l 0.0154,-0.002 0.0148,-0.003 0.0145,-0.004 0.0137,-0.005 0.0132,-0.006 0.0125,-0.008 0.0117,-0.009 0.0105,-0.01 0.01,-0.011 0.009,-0.0117 0.008,-0.0126 0.006,-0.0132 0.005,-0.0141 0.004,-0.0145 0.002,-0.0148 2.7e-4,-0.0154 -0.002,-0.0401 -0.002,-0.042 -0.002,-0.0439 -0.002,-0.0454 -0.002,-0.047 -4.6e-4,-0.0485 -4.4e-4,-0.0503 -4.4e-4,-0.0514 -4.5e-4,-0.0526 -2.7e-4,-0.0539 -2.8e-4,-0.055 -2.8e-4,-0.0561 -2e-4,-0.0572 -2.8e-4,-0.0581 v -0.0586 -0.0597 h -2.1e-4 v -0.23618 -0.23618 -0.23597 z" /><path
   inkscape:connector-curvature="0"
   style="fill:#000000;fill-opacity:1;stroke:#ff0000;stroke-width:0.0274478;stroke-miterlimit:4;stroke-dasharray:none;stroke-opacity:1"
   id="path4652"
   d="m 124.71312,136.99401 -0.0153,0.002 -0.0147,0.003 -0.0141,0.004 -0.0137,0.005 -0.013,0.006 -0.0123,0.008 -0.0116,0.009 -0.0106,0.01 -0.009,0.0105 -0.009,0.0115 -0.008,0.0125 -0.006,0.013 -0.005,0.0137 -0.004,0.0141 -0.003,0.0146 -0.002,0.0154 v 0.0945 0.0946 0.0946 0.0945 0.0948 0.0945 0.0945 0.0945 0.0946 0.0945 0.0945 0.0945 0.0948 0.0946 0.0946 0.0946 l -0.0161,-0.0264 -0.02,-0.0272 -0.0239,-0.0272 -0.0276,-0.0273 -0.032,-0.0268 -0.0368,-0.0264 -0.0413,-0.0252 -0.0461,-0.024 -0.0516,-0.0226 -0.0569,-0.0204 -0.0626,-0.0179 -0.0683,-0.0158 -0.0742,-0.0126 -0.0808,-0.009 -0.0873,-0.006 -0.0939,-0.003 -0.17176,0.009 -0.16248,0.0262 -0.1532,0.0428 -0.14347,0.0584 -0.13359,0.0736 -0.12344,0.0881 -0.11274,0.102 -0.10218,0.11478 -0.091,0.12717 -0.0799,0.13894 -0.0683,0.14967 -0.0564,0.1598 -0.0445,0.1693 -0.032,0.17796 -0.0195,0.18601 -0.006,0.16929 h 0.93504 l -2.2e-4,-0.008 0.004,-0.12614 0.0101,-0.11768 0.0166,-0.10962 0.0227,-0.10158 0.0289,-0.0933 0.0346,-0.0851 0.0402,-0.0768 0.0456,-0.0689 0.0512,-0.0604 0.0562,-0.0526 0.0612,-0.0446 0.0657,-0.0362 0.0704,-0.028 0.0747,-0.0202 0.0786,-0.0119 0.0828,-0.005 0.0958,0.004 0.0871,0.0108 0.0789,0.0181 0.0709,0.026 0.0632,0.0336 0.0558,0.0418 0.0489,0.0503 0.0422,0.0584 0.0361,0.0675 0.0299,0.0762 0.0247,0.0857 0.0193,0.095 0.0145,0.10445 0.01,0.11438 0.006,0.1245 0.002,0.13482 v 2.6e-4 h 0.8731 v -0.15546 -0.23617 -0.23619 -0.23597 -0.23618 -0.23618 -0.23619 -0.23598 -0.23618 -0.23619 -0.23618 -0.23596 -0.23619 l -0.002,-0.0153 -0.003,-0.0147 -0.004,-0.0142 -0.005,-0.0137 -0.007,-0.013 -0.008,-0.0125 -0.009,-0.0115 -0.01,-0.0106 -0.0105,-0.01 -0.0115,-0.009 -0.0125,-0.008 -0.0128,-0.006 -0.0137,-0.005 -0.0141,-0.004 -0.0147,-0.003 -0.0153,-0.002 h -0.0386 -0.0386 -0.0385 -0.0386 -0.0385 -0.0389 -0.0385 -0.0386 -0.0386 -0.0385 -0.0388 -0.0385 -0.0389 -0.0388 -0.0385 z" /><path
   inkscape:connector-curvature="0"
   id="path5369"
   d="m 99.584955,139.30669 v 0.009 0.26984 0.26983 0.26982 0.26985 0.26982 0.27004 0.26984 0.26984 0.26982 l 8.29e-4,0.0152 0.002,0.0146 0.0038,0.0141 0.0051,0.0137 0.0063,0.013 0.0075,0.0125 0.0085,0.0114 0.0097,0.0106 0.01053,0.01 0.01135,0.009 0.01218,0.008 0.01302,0.006 0.01382,0.005 0.01425,0.004 0.01463,0.002 0.01526,0.002 h 0.03531 0.03555 0.03527 0.03551 0.0353 0.03558 0.0352 0.03553 0.0352 0.0355 0.0352 0.0355 0.0352 0.0353 0.0355 0.0352 l 0.0152,-0.002 0.0148,-0.002 0.0143,-0.004 0.0137,-0.005 0.013,-0.006 0.0123,-0.008 0.0115,-0.009 0.0105,-0.01 0.01,-0.0106 0.009,-0.0114 0.008,-0.0125 0.006,-0.013 0.005,-0.0137 0.004,-0.0141 0.002,-0.0146 0.002,-0.0153 v -0.0933 -0.0935 -0.0935 -0.0933 -0.0935 -0.0935 -0.0933 -0.0935 -0.0935 -0.0933 -0.0935 -0.0935 -0.0933 -0.0935 -0.0935 -0.0933 l -2.3e-4,-0.15154 -4.5e-4,-0.15503 -0.002,-0.15815 -0.002,-0.15981 -0.003,-0.16082 -0.004,-0.1565 z"
   style="fill:#000000;fill-opacity:1;stroke:#f90000;stroke-width:0.0274478;stroke-miterlimit:4;stroke-dasharray:none;stroke-opacity:1" /><path
   inkscape:connector-curvature="0"
   id="path5367"
   d="m 105.10218,139.30669 h -1.80625 l -0.002,0.0999 -0.002,0.15465 -0.002,0.15464 -4.6e-4,0.1536 -2.5e-4,0.15152 -2.4e-4,0.14864 v 0.0985 0.0983 0.0985 0.0983 0.0985 0.0983 0.0985 0.0983 0.0985 0.0983 0.0985 0.0983 0.0985 0.0983 0.0985 0.0983 l 0.002,0.0153 0.002,0.0145 0.004,0.0143 0.005,0.0137 0.006,0.0131 0.008,0.0125 0.009,0.0115 0.01,0.0105 0.0106,0.01 0.0115,0.009 0.0123,0.008 0.0131,0.006 0.0137,0.005 0.0141,0.004 0.0147,0.002 0.0152,0.002 h 0.0204 0.0202 0.0204 0.0204 0.0202 0.0204 0.0204 0.0204 0.0202 0.0204 0.0204 0.0202 0.0204 0.0204 0.0204 0.0202 4.5e-4 2.8e-4 4.5e-4 2.6e-4 4.6e-4 4.5e-4 2.7e-4 4.4e-4 2.8e-4 4.4e-4 2.8e-4 4.5e-4 4.4e-4 2.8e-4 4.4e-4 2.6e-4 0.0172 0.0172 0.0171 0.0172 0.0171 0.0172 0.0171 0.0172 0.0171 0.0171 0.0172 0.0171 0.0172 0.0171 0.0172 0.0172 l 0.0152,-0.002 0.0146,-0.002 0.0142,-0.004 0.0138,-0.005 0.0128,-0.006 0.0125,-0.008 0.0113,-0.009 0.0105,-0.01 0.01,-0.0105 0.009,-0.0115 0.008,-0.0125 0.006,-0.0131 0.005,-0.0137 0.004,-0.0143 0.002,-0.0145 0.002,-0.0153 v -0.004 -0.004 -0.004 -0.004 -0.004 -0.004 -0.004 -0.004 -0.004 -0.004 -0.004 -0.004 -0.004 -0.004 -0.004 -0.004 l 3e-4,-0.009 0.002,-0.009 0.002,-0.009 0.004,-0.009 0.005,-0.008 0.005,-0.008 0.006,-0.007 0.006,-0.006 0.006,-0.006 0.007,-0.006 0.008,-0.005 0.008,-0.005 0.009,-0.004 0.009,-0.003 0.009,-0.002 0.009,-2.8e-4 h 0.0389 0.0389 0.0387 0.0389 0.0388 0.0386 0.0389 0.0389 0.0388 0.0386 0.0389 0.0389 0.0385 0.0389 0.0389 0.0386 l 0.02,-0.002 0.0192,-0.004 0.0188,-0.005 0.0177,-0.006 0.0172,-0.009 0.0159,-0.01 0.0148,-0.0112 0.0138,-0.0127 0.0126,-0.0138 0.0112,-0.0148 0.01,-0.0159 0.009,-0.0171 0.007,-0.0177 0.005,-0.0188 0.004,-0.0193 0.002,-0.02 v -0.1728 -0.17302 -0.17279 -0.17301 -0.17281 -0.173 -0.17279 -0.17301 -0.17279 -0.17283 -0.17299 -0.17283 z"
   style="fill:#000000;fill-opacity:1;stroke:#f90000;stroke-width:0.0274478;stroke-miterlimit:4;stroke-dasharray:none;stroke-opacity:1" /><path
   inkscape:connector-curvature="0"
   id="path5365"
   d="m 102.2197,139.30669 h 0.72918 l 0.0239,-0.0892 0.0631,-0.24217 0.0594,-0.23349 0.0555,-0.22298 0.0509,-0.21099 0.0456,-0.19758 0.0404,-0.1827 h 0.002 0.002 0.002 0.002 0.002 0.002 0.002 0.002 0.002 0.002 0.002 0.002 0.002 0.002 0.003 0.002 l -0.004,0.10219 -0.004,0.11108 -0.004,0.1191 -0.004,0.12657 -0.004,0.13295 -0.004,0.13875 -0.002,0.14347 -0.002,0.14741 -0.002,0.15051 -0.002,0.15278 -2.9e-4,0.0543 h 1.80626 v -0.14039 -0.1728 -0.17301 -0.1728 l -0.002,-0.0201 -0.004,-0.0193 -0.005,-0.0188 -0.007,-0.0177 -0.009,-0.0172 -0.009,-0.0159 -0.0112,-0.0148 -0.0126,-0.0138 -0.0138,-0.0127 -0.0148,-0.0112 -0.0159,-0.01 -0.0171,-0.009 -0.0176,-0.006 -0.0188,-0.005 -0.0192,-0.004 -0.02,-0.002 h -0.0386 -0.0389 -0.0388 -0.0387 -0.0388 -0.0389 -0.0387 -0.0389 -0.0388 -0.0389 -0.0386 -0.0389 -0.0388 -0.0388 -0.0388 -0.0389 l -0.009,-2.7e-4 -0.009,-0.002 -0.009,-0.002 -0.009,-0.004 -0.008,-0.005 -0.008,-0.005 -0.007,-0.006 -0.006,-0.006 -0.006,-0.006 -0.006,-0.007 -0.005,-0.008 -0.005,-0.008 -0.004,-0.009 -0.002,-0.009 -0.002,-0.009 -2.8e-4,-0.009 v -0.006 -0.005 -0.006 -0.006 -0.005 -0.006 -0.006 -0.005 -0.006 -0.006 -0.005 -0.006 -0.005 -0.006 -0.006 -0.005 l 2.8e-4,-0.009 0.002,-0.009 0.002,-0.009 0.004,-0.009 0.005,-0.008 0.005,-0.008 0.006,-0.007 0.006,-0.006 0.006,-0.006 0.007,-0.005 0.008,-0.005 0.008,-0.004 0.009,-0.004 0.009,-0.002 0.009,-0.002 0.009,-2.6e-4 h 0.0389 0.0388 0.0388 0.0388 0.0389 0.0386 0.0389 0.0388 0.0389 0.0387 0.0389 0.0388 0.0387 0.0388 0.0389 0.0386 l 0.02,-0.002 0.0192,-0.004 0.0188,-0.005 0.0176,-0.006 0.0171,-0.009 0.0159,-0.009 0.0148,-0.0112 0.0138,-0.0126 0.0126,-0.0138 0.0112,-0.0148 0.01,-0.016 0.009,-0.0172 0.007,-0.0176 0.005,-0.0189 0.004,-0.0193 0.002,-0.02 v -0.0166 -0.0165 -0.0166 -0.0166 -0.0164 -0.0166 -0.0166 -0.0166 -0.0166 -0.0166 -0.0165 -0.0168 -0.0164 -0.0166 -0.0167 -0.0164 l -0.002,-0.0197 -0.004,-0.0195 -0.005,-0.0186 -0.007,-0.0179 -0.009,-0.0169 -0.01,-0.0161 -0.0112,-0.0148 -0.0126,-0.0138 -0.0138,-0.0126 -0.0148,-0.0112 -0.0159,-0.01 -0.0171,-0.009 -0.0176,-0.007 -0.0188,-0.005 -0.0192,-0.004 -0.02,-0.002 h -0.0386 l -0.0397,-1.9e-4 h -0.0388 -0.0389 -0.0386 -0.0389 -0.0388 -0.0389 -0.0385 -0.0389 -0.0388 -0.0387 -0.0389 -0.0389 -0.0389 -0.0387 l -0.009,-2.8e-4 -0.009,-0.002 -0.009,-0.002 -0.009,-0.004 -0.008,-0.004 -0.008,-0.005 -0.007,-0.005 -0.007,-0.006 -0.006,-0.006 -0.005,-0.007 -0.005,-0.008 -0.004,-0.008 -0.004,-0.009 -0.002,-0.009 -0.002,-0.009 -2.7e-4,-0.009 v -0.002 -0.002 -0.002 -0.002 -0.002 -0.002 -0.002 -0.002 -0.002 -0.002 -0.002 -0.002 -0.002 -0.002 -0.002 -0.002 l -0.002,-0.015 -0.002,-0.0148 -0.004,-0.0141 -0.005,-0.0137 -0.006,-0.013 -0.008,-0.0123 -0.009,-0.0117 -0.009,-0.0105 -0.0105,-0.009 -0.0116,-0.009 -0.0123,-0.008 -0.013,-0.006 -0.0137,-0.005 -0.0141,-0.004 -0.0147,-0.003 -0.0153,-4.5e-4 h -0.0172 -0.0171 -0.0172 -0.0172 -0.0171 -0.0172 -0.0171 -0.0172 -0.0171 -0.0172 -0.0172 -0.0171 -0.0172 -0.0171 -0.0172 -0.0172 -4.6e-4 -2.7e-4 -4.5e-4 -2.9e-4 -4.4e-4 -4.5e-4 -2.6e-4 -4.3e-4 -2.8e-4 -4.5e-4 -2.6e-4 -4.4e-4 -2.7e-4 -4.5e-4 -4.5e-4 -2.8e-4 -0.0508 -0.0509 -0.0509 -0.0511 -0.0508 -0.0509 -0.0508 -0.0509 -0.0508 -0.0509 -0.0509 -0.0508 -0.0511 -0.0508 -0.0509 -0.0508 l -0.0121,2.9e-4 -0.012,0.002 -0.0117,0.003 -0.0111,0.004 -0.0109,0.005 -0.0105,0.005 -0.01,0.006 -0.01,0.006 -0.009,0.008 -0.009,0.008 -0.008,0.009 -0.008,0.009 -0.007,0.009 -0.006,0.0104 -0.005,0.0108 -0.005,0.0115 -0.0664,0.21037 -0.0694,0.22048 -0.0712,0.22794 -0.0723,0.23327 -0.073,0.23661 -0.072,0.23721 -0.0711,0.23577 -0.0687,0.23206 z"
   style="fill:#000000;fill-opacity:1;stroke:#f90000;stroke-width:0.0274478;stroke-miterlimit:4;stroke-dasharray:none;stroke-opacity:1" /><path
   inkscape:connector-curvature="0"
   id="path5363"
   d="m 101.55246,139.30669 h -0.81138 l 0.0475,0.19799 0.0649,0.26612 0.066,0.26839 0.0668,0.2686 0.0666,0.26611 0.0661,0.26116 0.0653,0.25394 0.0632,0.24423 0.0609,0.23185 0.0579,0.21739 0.004,0.0121 0.005,0.0115 0.006,0.011 0.006,0.0104 0.008,0.009 0.008,0.009 0.009,0.009 0.009,0.008 0.01,0.007 0.0104,0.006 0.0108,0.005 0.0112,0.005 0.0119,0.004 0.0121,0.002 0.0123,0.003 0.0126,2.6e-4 h 0.0368 0.0367 0.0368 0.037 0.0368 0.0367 0.0368 0.037 0.0368 0.0367 0.0368 0.037 0.0368 0.0367 0.0368 0.037 l 0.012,-2.6e-4 0.0121,-0.002 0.0119,-0.003 0.0115,-0.004 0.0109,-0.005 0.0105,-0.005 0.0102,-0.006 0.009,-0.006 0.009,-0.008 0.009,-0.008 0.008,-0.009 0.007,-0.009 0.007,-0.01 0.006,-0.0104 0.005,-0.0111 0.005,-0.0117 0.0747,-0.24587 0.0753,-0.25249 0.076,-0.25765 0.0761,-0.26096 0.0757,-0.26303 0.0745,-0.26342 0.0734,-0.26241 0.0712,-0.25951 0.0692,-0.25539 0.0428,-0.16041 h -0.72896 l -0.0391,0.13357 -0.0622,0.21782 -0.0576,0.20727 -0.0523,0.19449 -0.046,0.17939 -0.0391,0.16186 -0.0313,0.14245 -0.0225,0.12035 h -2.7e-4 -2.8e-4 -2.5e-4 -4.5e-4 -2.8e-4 -2.7e-4 -2.7e-4 -2.8e-4 -2.6e-4 -2.8e-4 -2.7e-4 -2.8e-4 -2.7e-4 -2.7e-4 -2.7e-4 -2.9e-4 l -0.0265,-0.13665 -0.032,-0.15485 -0.0374,-0.17092 -0.042,-0.18521 -0.0464,-0.19735 -0.0504,-0.20791 -0.0534,-0.21634 z"
   style="fill:#000000;fill-opacity:1;stroke:#f90000;stroke-width:0.0274478;stroke-miterlimit:4;stroke-dasharray:none;stroke-opacity:1" /><path
   inkscape:connector-curvature="0"
   id="polygon4654"
   d="m 99.733602,137.27727 -0.01526,4.4e-4 -0.01464,0.002 -0.01424,0.004 -0.01382,0.005 -0.01302,0.006 -0.01217,0.008 -0.01135,0.009 -0.01054,0.009 -0.0097,0.0105 -0.0085,0.0117 -0.0075,0.0123 -0.0063,0.013 -0.0051,0.0137 -0.0038,0.0142 -0.002,0.0148 -8.29e-4,0.0149 v 0.27001 0.26985 0.26981 0.26986 0.26983 0.26982 0.26178 h 0.855327 v -0.005 l -0.004,-0.15961 -0.004,-0.15752 -0.005,-0.15463 -0.005,-0.1505 -0.005,-0.14556 -0.006,-0.13977 -0.006,-0.13274 -0.006,-0.12491 -0.007,-0.11601 -0.008,-0.10634 h 0.002 0.002 0.003 0.002 0.002 0.002 0.002 0.003 0.002 0.002 0.002 0.002 0.002 0.003 0.002 0.002 l 0.0374,0.18084 0.0435,0.20028 0.0483,0.2174 0.0531,0.23184 0.0567,0.24423 0.0601,0.25394 0.0148,0.0632 h 0.81137 l -0.034,-0.135 -0.0588,-0.22751 -0.0604,-0.2302 -0.0621,-0.23125 -0.0627,-0.22997 -0.0634,-0.22709 -0.063,-0.22194 -0.0629,-0.21533 -0.0617,-0.20666 -0.005,-0.0117 -0.005,-0.0111 -0.006,-0.0104 -0.006,-0.01 -0.008,-0.009 -0.008,-0.009 -0.009,-0.008 -0.009,-0.008 -0.01,-0.006 -0.0102,-0.006 -0.0106,-0.005 -0.0109,-0.005 -0.0115,-0.004 -0.0119,-0.002 -0.012,-0.002 -0.0124,-2.4e-4 h -0.0717 -0.0719 -0.0717 -0.0717 -0.0718 -0.0717 -0.0718 -0.0718 -0.0718 -0.0717 -0.0717 -0.0718 -0.07167 -0.07186 -0.07164 z"
   style="fill:#000000;fill-opacity:1;stroke:#f90000;stroke-width:0.0274478;stroke-miterlimit:4;stroke-dasharray:none;stroke-opacity:1" />
</g>






</svg>
