<?xml version="1.0" encoding="utf-8"?>
<!-- Generator: Adobe Illustrator 23.0.2, SVG Export Plug-In . SVG Version: 6.00 Build 0)  -->
<svg version="1.0" id="Layer_1" xmlns="http://www.w3.org/2000/svg" xmlns:xlink="http://www.w3.org/1999/xlink" x="0px" y="0px"
	 viewBox="0 0 623.5144653 267.3630066" style="enable-background:new 0 0 623.5144653 267.3630066;" xml:space="preserve">
<g>
	<path d="M487.9956665,52.2611618H131.2755127l-17.2438965,1.7383347l-16.0610199,4.9856186l-14.5340729,7.8888397
		L70.773468,77.3219376l-10.4479828,12.663063l-7.8888283,14.5340729l-4.9856148,16.0610123l-1.7383308,17.2438736v0.0001831
		l1.7383308,17.2438965l4.9856148,16.0610046l7.8888283,14.5340729l10.4479828,12.6630554l12.6630554,10.447998
		l14.5340729,7.8888245l16.0610199,4.9856262l17.2438965,1.738327h26.4606323v-48.1395874l-2.6825256,3.2210236
		l-2.9794922,2.8193359l-3.2657623,2.4090729l-3.5413818,1.9902496l-3.8062897,1.5628815l-4.0605469,1.1269379l-4.3041077,0.6824493
		l-4.5370178,0.2293701l-9.9319687-0.9373627l-8.9405212-2.7323303l-7.8464966-4.4076538l-6.6498795-5.9632874l-5.3507004-7.3992767
		l-3.9489365-8.7156219l-2.4445801-9.9122925l-0.8376541-10.9893036l0.8287125-10.7851486l2.4163513-9.7145615l3.8992996-8.5307159
		l5.2775726-7.2336273l6.5511398-5.823288l7.7200394-4.2996979l8.7842484-2.6628723l9.7437668-0.9127884l4.6661911,0.236824
		l4.4181061,0.7005157l4.161499,1.1492386l3.8964081,1.5830231l3.6228027,2.0018463l3.3406982,2.4057159l3.0500641,2.7946396
		l2.7509613,3.168602V89.3632736h32.456604v134.0236816h297.8029175l17.2438965-1.738327l16.0610352-4.9856262l14.5340576-7.8888245
		l12.6630859-10.447998l10.447937-12.6630554l7.888855-14.5340729l4.9855957-16.0610046l1.7383423-17.2438965v-0.0001831
		l-1.7383423-17.2438736l-4.9855957-16.0610123l-7.888855-14.5340729l-10.447937-12.663063l-12.6630859-10.4479828
		l-14.5340576-7.8888397l-16.0610352-4.9856186L487.9956665,52.2611618L487.9956665,52.2611618z M333.1504517,188.0118866
		h-32.093689l-18.7810059-60.9031906l-18.9643555,60.9031906h-32.0918579l-35.9232178-98.648613h33.0047607l19.6921387,66.7382126
		l19.3291626-66.7382126h30.9992676l19.5106201,66.7382126l19.6939697-66.7382126h31.7270508L333.1504517,188.0118866
		L333.1504517,188.0118866z M405.1727905,188.0118866H372.897644v-98.648613h32.2751465V188.0118866L405.1727905,188.0118866z
		 M444.0089111,188.0118866h-32.2751465v-98.648613h32.2751465V188.0118866L444.0089111,188.0118866z M507.2094727,115.6074753
		l-1.2135925-0.2216644l-1.2412415-0.1680908l-1.2721863-0.106636l-1.306427-0.0373001l-8.0005188,1.7323227l-6.2227478,4.8778305
		l-4.0346375,7.5445938l-1.4360657,9.7326355l1.4360657,9.8096161l4.0346375,7.5360413l6.2227478,4.8350677l8.0005188,1.706665
		l1.3057861-0.0336914l1.2719727-0.0966339l1.2414856-0.1529388l1.2142029-0.2025757v26.4213257l-3.2915039,0.2367249
		l-3.3826294,0.0854797l-20.7681885-3.5757751l-15.998291-10.1231842l-10.2883911-15.7643585l-3.6383667-20.4993286
		l3.6698303-20.873085l10.3710327-16.0522079l16.1146851-10.3082428l20.9006653-3.6412125l3.1940308,0.0848389l3.1171265,0.2340698
		V115.6074753L507.2094727,115.6074753z"/>
	<polygon points="136.5829468,114.5266037 127.8643646,116.3216248 121.1288986,121.3647385 116.7867737,129.1430359 
		115.2482376,139.1436005 116.7867737,149.1440125 121.1288986,156.9219971 127.8643646,161.9648132 136.5829468,163.7596893 
		145.1965942,161.9648132 151.8781738,156.9219971 156.2004547,149.1440125 157.736145,139.1436005 156.2004547,129.0661011 
		151.8781738,121.2963486 145.1965942,116.2959747 136.5829468,114.5266037 	"/>
</g>
<g>
	<path d="M586.0336914,206.5919647l-1.2564697,6.2826691l-3.449585,5.1925507l-5.1626587,3.5330658l-6.3959351,1.3042145
		l-6.3531494-1.2892609l-5.1152344-3.5001678l-3.4110718-5.1596527l-1.2406616-6.2677155l1.2489014-6.2821045l3.4327393-5.1922607
		l5.1459351-3.532959l6.3882446-1.3041992l6.3607788,1.2825165l5.132019,3.4888458l3.4278564,5.1571198L586.0336914,206.5919647
		L586.0336914,206.5919647z M582.5893555,206.5919647l-0.979126-4.8990479l-2.6922607-4.0157471l-4.0377197-2.715332
		l-5.0155029-0.9978027l-5.0427246,1.0127563l-4.052002,2.74823l-2.6976929,4.048645l-0.9800415,4.9140015l0.9718018,4.8996124
		l2.6760254,4.016037l4.0213013,2.7154388l5.0076294,0.997818l5.0708618-1.0127716l4.0661011-2.7483368l2.7027588-4.0489349
		L582.5893555,206.5919647L582.5893555,206.5919647z M573.7397461,208.745285l3.3964844,5.1660156h-3.9707031l-2.4873047-4.4960938
		h-3.5400391v4.4960938h-3.4443359v-15.546875h6.6015625l2.7373047,0.3596039l2.0106201,1.0457916l1.2391968,1.6824493
		l0.4230347,2.269577l-0.194397,1.6933441l-0.571106,1.4105377l-0.9298096,1.1144562L573.7397461,208.745285L573.7397461,208.745285
		z M567.1381836,206.6398163h3.1572266l1.3135376-0.1845245l0.9768677-0.5387421l0.6090088-0.8707123l0.2099609-1.1804352
		l-0.2099609-1.1725464l-0.6090088-0.8543091l-0.9768677-0.522522l-1.3135376-0.1771851h-3.1572266V206.6398163
		L567.1381836,206.6398163z"/>
</g>
<g>
</g>
<g>
</g>
<g>
</g>
<g>
</g>
<g>
</g>
<g>
</g>
</svg>
