<?xml version="1.0" encoding="UTF-8" standalone="no"?>
<!-- Created with Inkscape (http://www.inkscape.org/) -->

<svg
   xmlns:dc="http://purl.org/dc/elements/1.1/"
   xmlns:cc="http://creativecommons.org/ns#"
   xmlns:rdf="http://www.w3.org/1999/02/22-rdf-syntax-ns#"
   xmlns:svg="http://www.w3.org/2000/svg"
   xmlns="http://www.w3.org/2000/svg"
   xmlns:sodipodi="http://sodipodi.sourceforge.net/DTD/sodipodi-0.dtd"
   xmlns:inkscape="http://www.inkscape.org/namespaces/inkscape"
   width="87.281937mm"
   height="20.466829mm"
   viewBox="0 0 87.281937 20.466829"
   version="1.1"
   id="svg8"
   inkscape:version="0.92.3 (2405546, 2018-03-11)"
   sodipodi:docname="shape.svg">
  <defs
     id="defs2" />
  <sodipodi:namedview
     id="base"
     pagecolor="#ffffff"
     bordercolor="#666666"
     borderopacity="1.0"
     inkscape:pageopacity="0.0"
     inkscape:pageshadow="2"
     inkscape:zoom="1.4"
     inkscape:cx="40.01381"
     inkscape:cy="-4.0293034"
     inkscape:document-units="mm"
     inkscape:current-layer="text4520"
     showgrid="false"
     fit-margin-top="0"
     fit-margin-left="0"
     fit-margin-right="0"
     fit-margin-bottom="0"
     inkscape:window-width="1920"
     inkscape:window-height="1017"
     inkscape:window-x="-8"
     inkscape:window-y="-8"
     inkscape:window-maximized="1" />
  <metadata
     id="metadata5">
    <rdf:RDF>
      <cc:Work
         rdf:about="">
        <dc:format>image/svg+xml</dc:format>
        <dc:type
           rdf:resource="http://purl.org/dc/dcmitype/StillImage" />
        <dc:title></dc:title>
      </cc:Work>
    </rdf:RDF>
  </metadata>
  <g
     inkscape:label="Layer 1"
     inkscape:groupmode="layer"
     id="layer1"
     transform="translate(-56.87557,-112.93219)">
    <g
       aria-label="SHAPE"
       style="font-style:normal;font-variant:normal;font-weight:normal;font-stretch:normal;font-size:26.52915001px;line-height:1.25;font-family:Keifont;-inkscape-font-specification:Keifont;letter-spacing:0px;word-spacing:0px;fill:#000000;fill-opacity:1;stroke:none;stroke-width:1.53052783"
       id="text4520">
      <path
         d="m 64.259172,133.39902 q -1.994868,0 -3.937921,-0.72541 -1.943053,-0.7254 -3.445681,-2.09849 l 2.66846,-3.26433 q 1.062202,0.90675 2.357571,1.47672 1.321276,0.54405 2.4612,0.54405 2.56483,0 2.56483,-1.73579 0,-0.90676 -1.139924,-1.50263 -0.310889,-0.18135 -1.632165,-0.72541 l -2.538922,-1.0622 q -1.735794,-0.6995 -2.875719,-2.04668 -1.114017,-1.37309 -1.114017,-3.36796 0,-2.51301 2.020775,-4.2229 2.020775,-1.7358 5.12966,-1.7358 1.761701,0 3.445681,0.6736 1.709886,0.64768 2.979348,1.91714 l -2.357571,2.97935 q -2.020775,-1.52854 -4.067458,-1.52854 -1.08811,0 -1.735794,0.44043 -0.621777,0.44043 -0.621777,1.21765 0,0.6995 0.59587,1.11401 0.621777,0.38861 2.07259,0.95858 0.233166,0.0777 0.336795,0.12953 l 2.461201,0.98448 q 3.886106,1.58035 3.886106,5.41464 0,2.59074 -2.046683,4.37835 -2.020775,1.78761 -5.466455,1.78761 z"
         style="stroke-width:0.1;fill:#000000;fill-opacity:1;stroke:none;stroke-opacity:1;stroke-miterlimit:4;stroke-dasharray:none"
         id="path4522"
         inkscape:connector-curvature="0" />
      <path
         d="M 75.062547,133.03632 V 113.2949 h 4.741049 v 7.51314 h 6.50275 v -7.51314 h 4.689235 v 19.74142 h -4.689235 v -8.10901 h -6.50275 v 8.10901 z"
         style="stroke-width:0.1;fill:#000000;fill-opacity:1;stroke:none;stroke-opacity:1;stroke-miterlimit:4;stroke-dasharray:none"
         id="path4524"
         inkscape:connector-curvature="0" />
      <path
         d="m 99.959529,124.84959 h 4.041551 l -0.44043,-1.68398 q -0.28498,-1.0363 -0.80312,-3.21252 -0.51815,-2.20212 -0.75132,-3.13479 h -0.10363 q -0.51815,2.33166 -1.52853,6.34731 z m 6.088231,8.18673 -1.16583,-4.53379 h -5.829159 l -1.139924,4.53379 h -4.818772 l 6.11414,-19.74142 h 5.673715 l 6.14005,19.74142 z"
         style="stroke-width:0.1;fill:#000000;fill-opacity:1;stroke:none;stroke-opacity:1;stroke-miterlimit:4;stroke-dasharray:none"
         id="path4526"
         inkscape:connector-curvature="0" />
      <path
         d="M 113.09457,133.03632 V 113.2949 h 6.91727 q 1.70988,0 3.08297,0.33679 1.399,0.31089 2.51302,1.0363 1.11402,0.7254 1.73579,2.02077 0.62178,1.26946 0.62178,3.03117 0,2.25394 -1.11402,3.83429 -1.11401,1.55444 -2.8239,2.25394 -1.70989,0.67359 -3.88611,0.67359 h -2.30575 v 6.55457 z m 4.74105,-10.28523 h 2.07259 q 3.41977,0 3.41977,-3.03116 0,-1.45082 -0.88085,-2.04669 -0.88085,-0.62177 -2.66846,-0.62177 h -1.94305 z"
         style="stroke-width:0.1;fill:#000000;fill-opacity:1;stroke:none;stroke-opacity:1;stroke-miterlimit:4;stroke-dasharray:none"
         id="path4528"
         inkscape:connector-curvature="0" />
      <path
         d="M 131.33336,133.03632 V 113.2949 h 12.51326 v 3.93792 h -7.77221 v 3.65294 h 6.60638 v 3.98973 h -6.60638 v 4.17109 h 8.0831 v 3.98974 z"
         style="stroke-width:0.1;fill:#000000;fill-opacity:1;stroke:none;stroke-opacity:1;stroke-miterlimit:4;stroke-dasharray:none"
         id="path4530"
         inkscape:connector-curvature="0" />
    </g>
  </g>
</svg>
