<?xml version="1.0" encoding="UTF-8" standalone="no"?>
<!-- Created with Inkscape (http://www.inkscape.org/) -->

<svg
   xmlns:dc="http://purl.org/dc/elements/1.1/"
   xmlns:cc="http://creativecommons.org/ns#"
   xmlns:rdf="http://www.w3.org/1999/02/22-rdf-syntax-ns#"
   xmlns:svg="http://www.w3.org/2000/svg"
   xmlns="http://www.w3.org/2000/svg"
   xmlns:sodipodi="http://sodipodi.sourceforge.net/DTD/sodipodi-0.dtd"
   xmlns:inkscape="http://www.inkscape.org/namespaces/inkscape"
   version="1.1"
   id="svg2"
   xml:space="preserve"
   width="544.88934"
   height="249.33333"
   viewBox="0 0 544.88934 249.33333"
   sodipodi:docname="SparkFun.svg"
   inkscape:version="0.92.3 (2405546, 2018-03-11)"><metadata
     id="metadata8"><rdf:RDF><cc:Work
         rdf:about=""><dc:format>image/svg+xml</dc:format><dc:type
           rdf:resource="http://purl.org/dc/dcmitype/StillImage" /><dc:title></dc:title></cc:Work></rdf:RDF></metadata><defs
     id="defs6"><clipPath
       clipPathUnits="userSpaceOnUse"
       id="clipPath18"><path
         d="M 0,187 H 408.667 V 0 H 0 Z"
         id="path16"
         inkscape:connector-curvature="0" /></clipPath></defs><sodipodi:namedview
     pagecolor="#ffffff"
     bordercolor="#666666"
     borderopacity="1"
     objecttolerance="10"
     gridtolerance="10"
     guidetolerance="10"
     inkscape:pageopacity="0"
     inkscape:pageshadow="2"
     inkscape:window-width="686"
     inkscape:window-height="480"
     id="namedview4"
     showgrid="false"
     inkscape:zoom="0.92312321"
     inkscape:cx="272.44467"
     inkscape:cy="124.66666"
     inkscape:window-x="0"
     inkscape:window-y="0"
     inkscape:window-maximized="0"
     inkscape:current-layer="g10" /><g
     id="g10"
     inkscape:groupmode="layer"
     inkscape:label="SparkFun Logo_with Start Something"
     transform="matrix(1.3333333,0,0,-1.3333333,0,249.33333)"><g
       id="g12"><g
         id="g14"
         clip-path="url(#clipPath18)"><g
           id="g20"
           transform="translate(276.7516,168.2949)"><path
             d="m 0,0 c 0,0 1.263,-5.328 -2.76,-6.069 -2.801,-0.495 -7.318,2.28 -9.593,5.049 -2.801,3.415 -2.447,6.101 -0.268,8.486 3.274,3.621 8.879,2.222 8.879,2.222 0,0 -10.269,9.009 -20.963,1.626 -9.526,-6.556 -6.792,-15.495 1.804,-23.294 7.747,-7.049 1.559,-14.778 -6.245,-13.774 -5.35,0.682 -7.539,4.975 -6.254,7.61 1.107,2.254 4.947,3.64 4.947,3.64 0,0 -4.411,1.793 -9.603,-0.162 -4.664,-1.758 -8.509,-5.613 -8.202,-15.269 v -44.766 c 0,0 4.821,5.944 10.488,11.989 6.346,6.819 9.242,11.427 15.759,10.888 12.331,-0.763 21.248,4.715 27.31,13.505 C 16.937,-21.414 7.821,-2.526 0,0"
             style="fill:#e72a23;fill-opacity:1;fill-rule:nonzero;stroke:none"
             id="path22"
             inkscape:connector-curvature="0" /></g><g
           id="g24"
           transform="translate(80.049,43.0088)"><path
             d="m 0,0 c -8.804,0 -11.852,7.641 -11.852,15.66 0,8.018 2.87,15.955 11.757,15.955 8.693,0 11.841,-8.028 11.841,-15.955 C 11.746,7.641 8.886,0 0,0 m 2.869,41.837 c -6.12,0 -11.372,-2.286 -14.721,-7.642 h -0.189 v 6.308 l -12.9,-2.301 V -26.28 l 13.563,-12.068 10e-4,35.569 h 0.199 c 3.34,-4.873 8.778,-7.449 14.805,-7.449 14.521,0 21.693,12.315 21.693,25.51 0,14.04 -6.982,26.555 -22.451,26.555"
             style="fill:#191413;fill-opacity:1;fill-rule:nonzero;stroke:none"
             id="path26"
             inkscape:connector-curvature="0" /></g><g
           id="g28"
           transform="translate(34.0192,63.835)"><path
             d="m 0,0 c -7.636,1.808 -15.393,2.481 -15.393,7.348 0,4.11 4.494,4.596 7.562,4.596 4.867,0 8.879,-1.442 9.27,-6.701 H 14.333 C 13.276,17.384 3.253,21.01 -7.459,21.01 c -10.608,0 -21.489,-3.245 -21.489,-15.867 0,-8.776 7.733,-11.358 15.668,-13.178 9.653,-2.004 15.385,-3.538 15.385,-7.643 0,-4.775 -5.069,-6.304 -8.889,-6.304 -5.253,0 -10.419,2.487 -10.419,8.317 h -12.89 c 0.484,-13.098 11.75,-17.389 23.206,-17.389 11.181,0 22.56,4.199 22.56,17.196 C 15.673,-4.691 7.926,-1.826 0,0"
             style="fill:#191413;fill-opacity:1;fill-rule:nonzero;stroke:none"
             id="path30"
             inkscape:connector-curvature="0" /></g><g
           id="g32"
           transform="translate(142.133,53.2197)"><path
             d="m 0,0 c 0,-3.049 -0.381,-11.368 -10.978,-11.368 -4.402,0 -8.328,1.338 -8.328,6.306 0,4.965 3.833,6.505 8.037,7.256 C -7.07,2.967 -2.292,3.062 0,5.071 Z m 13.576,17.594 c 0,11.84 -11.853,14.032 -21.696,14.032 -11.083,0 -22.456,-3.916 -23.22,-16.531 h 13.571 c 0.481,5.349 3.725,7.464 8.986,7.464 4.77,0 8.783,-0.963 8.783,-6.7 0.571,-11.078 -32.682,0.96 -32.859,-21.482 0,-10.142 7.353,-14.815 16.804,-14.815 6.121,0 12.336,1.619 16.626,6.105 0.106,-1.613 0.489,-3.242 0.967,-4.771 h 13.748 c -1.235,2.004 -1.71,6.499 -1.71,10.98 z"
             style="fill:#191413;fill-opacity:1;fill-rule:nonzero;stroke:none"
             id="path34"
             inkscape:connector-curvature="0" /></g><g
           id="g36"
           transform="translate(176.4723,74.3374)"><path
             d="m 0,0 h -0.182 v 9.174 l -12.9,-2.3 V -40.222 H 0.483 v 22.261 c 0,8.792 3.35,15.864 13.378,15.864 1.627,0 3.628,-0.2 4.875,-0.479 V 10.035 C 17.778,10.316 16.824,10.508 15.77,10.508 8.99,10.508 2.587,6.214 0,0"
             style="fill:#191413;fill-opacity:1;fill-rule:nonzero;stroke:none"
             id="path38"
             inkscape:connector-curvature="0" /></g><g
           id="g40"
           transform="translate(247.1706,83.5112)"><path
             d="m 0,0 h -16.054 l -17.103,-17.778 v 36.602 l -13.566,-7.442 v -60.778 h 13.565 v 17.001 l 5.263,5.07 13.558,-22.071 H 2.092 l -20.729,31.232 z"
             style="fill:#191413;fill-opacity:1;fill-rule:nonzero;stroke:none"
             id="path42"
             inkscape:connector-curvature="0" /></g><g
           id="g44"
           transform="translate(257.5163,87.3237)"><path
             d="m 0,0 v -3.813 h -4.135 l -9.244,-9.075 H 0 v -40.32 h 13.568 v 40.32 h 9.362 v 9.075 h -9.362 v 2.96 c 0,4.111 1.436,5.642 5.17,5.642 1.609,0 3.336,-0.089 4.958,-0.294 v 10.132 c -2.284,0.093 -4.78,0.384 -7.157,0.384 C 5.451,15.011 0,8.798 0,0"
             style="fill:#191413;fill-opacity:1;fill-rule:nonzero;stroke:none"
             id="path46"
             inkscape:connector-curvature="0" /></g><g
           id="g48"
           transform="translate(317.0221,57.6206)"><path
             d="m 0,0 c 0,-10.025 -3.145,-14.138 -10.512,-14.138 -6.387,0 -8.683,4.004 -8.683,12.132 v 27.897 h -13.573 v -30.39 c 0,-12.226 3.627,-20.34 18.054,-20.34 5.734,0 11.666,2.575 15.103,8.213 h 0.283 v -6.879 H 13.575 V 25.891 H 0 Z"
             style="fill:#191413;fill-opacity:1;fill-rule:nonzero;stroke:none"
             id="path50"
             inkscape:connector-curvature="0" /></g><g
           id="g52"
           transform="translate(366.3717,84.8452)"><path
             d="m 0,0 c -5.741,0 -11.659,-2.58 -15.098,-8.214 h -0.285 v 6.88 H -28.284 V -50.73 h 13.579 v 25.885 c 0,10.039 3.142,14.149 10.497,14.149 6.39,0 8.695,-4.012 8.695,-12.137 V -50.73 h 13.569 v 30.393 C 18.056,-8.12 14.424,0 0,0"
             style="fill:#191413;fill-opacity:1;fill-rule:nonzero;stroke:none"
             id="path54"
             inkscape:connector-curvature="0" /></g><g
           id="g56"
           transform="translate(396.362,35.4521)"><path
             d="m 0,0 c -2.623,0 -4.706,2.074 -4.706,4.936 0,2.837 2.083,4.897 4.707,4.897 C 2.6,9.833 4.72,7.773 4.72,4.936 4.72,2.074 2.6,0 0,0 m 0.001,11.166 c -3.392,0 -6.415,-2.437 -6.415,-6.23 0,-3.818 3.022,-6.273 6.414,-6.273 3.397,0 6.428,2.455 6.428,6.273 0,3.793 -3.031,6.23 -6.427,6.23"
             style="fill:#191413;fill-opacity:1;fill-rule:nonzero;stroke:none"
             id="path58"
             inkscape:connector-curvature="0" /></g><g
           id="g60"
           transform="translate(395.2604,40.9697)"><path
             d="M 0,0 V 1.841 H 1.169 C 1.81,1.841 2.613,1.704 2.613,0.97 2.613,0.118 2.045,0 1.236,0 Z m 3.999,0.852 c 0,1.523 -0.988,2.074 -2.75,2.074 H -1.387 V -4.08 H 0 v 2.992 H 0.871 L 2.578,-4.08 h 1.455 l -1.87,3.061 c 1.016,0.082 1.836,0.581 1.836,1.871"
             style="fill:#191413;fill-opacity:1;fill-rule:nonzero;stroke:none"
             id="path62"
             inkscape:connector-curvature="0" /></g><g
           id="g64"
           transform="translate(83.0446,9.5732)"><path
             d="M 0,0 2.268,0.647 C 2.557,0.73 2.854,0.565 2.95,0.28 c 0.58,-1.737 1.794,-2.572 3.326,-2.572 1.826,0 2.915,1.208 2.915,2.15 0,0.619 -0.441,1.355 -1.589,1.737 L 3.773,2.832 c -1.531,0.501 -2.561,1.619 -3.032,3.18 -0.825,2.739 0.883,5.537 3.857,6.331 2.602,0.7 6.001,-0.195 6.915,-3.392 0.082,-0.288 -0.089,-0.59 -0.375,-0.678 L 8.896,7.58 C 8.632,7.499 8.342,7.619 8.229,7.87 7.687,9.091 6.738,9.393 5.599,9.075 4.362,8.751 3.862,7.721 4.068,6.983 4.186,6.571 4.539,6.189 5.04,6.041 L 8.897,4.835 c 2.326,-0.737 3.77,-2.739 3.77,-5.065 0,-3.123 -2.916,-5.449 -6.42,-5.449 -3.16,0 -5.869,1.806 -6.638,5.015 C -0.46,-0.375 -0.286,-0.082 0,0"
             style="fill:#231f20;fill-opacity:1;fill-rule:nonzero;stroke:none"
             id="path66"
             inkscape:connector-curvature="0" /></g><g
           id="g68"
           transform="translate(103.3049,21.8574)"><path
             d="M 0,0 H 11.843 C 12.15,0 12.4,-0.249 12.4,-0.557 v -2.42 c 0,-0.307 -0.25,-0.556 -0.557,-0.556 H 7.688 v -13.578 c 0,-0.308 -0.249,-0.557 -0.557,-0.557 h -2.42 c -0.307,0 -0.557,0.249 -0.557,0.557 V -3.533 H 0 c -0.308,0 -0.557,0.249 -0.557,0.556 v 2.42 C -0.557,-0.249 -0.308,0 0,0"
             style="fill:#231f20;fill-opacity:1;fill-rule:nonzero;stroke:none"
             id="path70"
             inkscape:connector-curvature="0" /></g><g
           id="g72"
           transform="translate(126.423,10.374)"><path
             d="M 0,0 H 3.887 L 1.944,5.595 Z m 5.036,-3.24 h -6.184 l -0.9,-2.572 c -0.078,-0.223 -0.289,-0.373 -0.526,-0.373 h -2.059 c -0.384,0 -0.653,0.379 -0.526,0.742 L 0.635,11.11 c 0.078,0.224 0.289,0.373 0.526,0.373 h 1.565 c 0.237,0 0.448,-0.149 0.526,-0.373 L 9.046,-5.443 C 9.173,-5.806 8.904,-6.185 8.521,-6.185 h -2.06 c -0.236,0 -0.447,0.15 -0.525,0.373 z"
             style="fill:#231f20;fill-opacity:1;fill-rule:nonzero;stroke:none"
             id="path74"
             inkscape:connector-curvature="0" /></g><g
           id="g76"
           transform="translate(146.1813,18.4707)"><path
             d="m 0,0 v -4.417 h 2.945 c 1.207,0 2.061,1.061 2.061,2.209 C 5.006,-1.06 4.034,0 2.827,0 Z m 0.147,-7.803 v -5.922 c 0,-0.307 -0.249,-0.556 -0.556,-0.556 H -2.83 c -0.307,0 -0.556,0.249 -0.556,0.556 V 2.83 c 0,0.308 0.249,0.557 0.556,0.557 h 5.951 c 2.769,0 5.272,-2.503 5.272,-5.595 0,-1.973 -1.031,-3.681 -2.474,-4.682 l 3.762,-6.557 c 0.213,-0.371 -0.056,-0.834 -0.483,-0.834 H 6.943 c -0.196,0 -0.379,0.104 -0.479,0.273 l -3.667,6.205 z"
             style="fill:#231f20;fill-opacity:1;fill-rule:nonzero;stroke:none"
             id="path78"
             inkscape:connector-curvature="0" /></g><g
           id="g80"
           transform="translate(163.9635,21.8574)"><path
             d="M 0,0 H 11.843 C 12.151,0 12.4,-0.249 12.4,-0.557 v -2.42 c 0,-0.307 -0.249,-0.556 -0.557,-0.556 H 7.689 v -13.578 c 0,-0.308 -0.25,-0.557 -0.557,-0.557 h -2.42 c -0.308,0 -0.557,0.249 -0.557,0.557 V -3.533 H 0 c -0.308,0 -0.557,0.249 -0.557,0.556 v 2.42 C -0.557,-0.249 -0.308,0 0,0"
             style="fill:#231f20;fill-opacity:1;fill-rule:nonzero;stroke:none"
             id="path82"
             inkscape:connector-curvature="0" /></g><g
           id="g84"
           transform="translate(199.8273,9.5732)"><path
             d="M 0,0 2.268,0.647 C 2.557,0.73 2.854,0.565 2.95,0.28 c 0.58,-1.737 1.794,-2.572 3.326,-2.572 1.826,0 2.915,1.208 2.915,2.15 0,0.619 -0.441,1.355 -1.589,1.737 L 3.773,2.832 c -1.531,0.501 -2.561,1.619 -3.032,3.18 -0.825,2.739 0.883,5.537 3.857,6.331 2.602,0.7 6.001,-0.195 6.915,-3.392 0.082,-0.288 -0.088,-0.59 -0.374,-0.678 L 8.896,7.58 C 8.632,7.499 8.342,7.619 8.229,7.87 7.687,9.091 6.738,9.393 5.599,9.075 4.362,8.751 3.862,7.721 4.068,6.983 4.186,6.571 4.539,6.189 5.04,6.041 L 8.897,4.835 c 2.326,-0.737 3.77,-2.739 3.77,-5.065 0,-3.123 -2.916,-5.449 -6.42,-5.449 -3.16,0 -5.869,1.806 -6.638,5.015 C -0.46,-0.375 -0.286,-0.082 0,0"
             style="fill:#231f20;fill-opacity:1;fill-rule:nonzero;stroke:none"
             id="path86"
             inkscape:connector-curvature="0" /></g><g
           id="g88"
           transform="translate(228.3649,7.2227)"><path
             d="m 0,0 c 3.063,0 5.565,2.592 5.565,5.801 0,3.21 -2.502,5.802 -5.565,5.802 -3.063,0 -5.566,-2.592 -5.566,-5.802 C -5.566,2.592 -3.063,0 0,0 m 0,14.93 c 4.888,0 8.834,-4.094 8.834,-9.129 0,-5.035 -3.946,-9.129 -8.834,-9.129 -4.889,0 -8.834,4.094 -8.834,9.129 0,5.035 3.945,9.129 8.834,9.129"
             style="fill:#231f20;fill-opacity:1;fill-rule:nonzero;stroke:none"
             id="path90"
             inkscape:connector-curvature="0" /></g><g
           id="g92"
           transform="translate(251.7643,9.9346)"><path
             d="M 0,0 -2.787,5.298 V -5.188 c 0,-0.308 -0.25,-0.557 -0.558,-0.557 h -2.419 c -0.307,0 -0.557,0.249 -0.557,0.557 v 16.554 c 0,0.308 0.25,0.557 0.557,0.557 h 2.493 c 0.207,0 0.396,-0.114 0.493,-0.298 L 1.63,3.236 6.037,11.625 c 0.096,0.184 0.286,0.298 0.493,0.298 h 2.493 c 0.308,0 0.557,-0.249 0.557,-0.557 V -5.188 c 0,-0.308 -0.249,-0.557 -0.557,-0.557 H 6.604 c -0.308,0 -0.557,0.249 -0.557,0.557 V 5.298 L 3.259,0 C 3.162,-0.184 2.973,-0.298 2.766,-0.298 H 0.493 C 0.286,-0.298 0.097,-0.184 0,0"
             style="fill:#231f20;fill-opacity:1;fill-rule:nonzero;stroke:none"
             id="path94"
             inkscape:connector-curvature="0" /></g><g
           id="g96"
           transform="translate(271.3239,21.8574)"><path
             d="m 0,0 h 9.487 c 0.308,0 0.557,-0.249 0.557,-0.557 v -2.42 c 0,-0.307 -0.249,-0.556 -0.557,-0.556 H 2.683 v -3.682 h 5.921 c 0.307,0 0.556,-0.249 0.556,-0.556 v -2.125 c 0,-0.308 -0.249,-0.557 -0.556,-0.557 H 2.683 v -3.682 h 6.804 c 0.308,0 0.557,-0.249 0.557,-0.556 v -2.42 c 0,-0.308 -0.249,-0.557 -0.557,-0.557 H 0 c -0.308,0 -0.557,0.249 -0.557,0.557 V -0.557 C -0.557,-0.249 -0.308,0 0,0"
             style="fill:#231f20;fill-opacity:1;fill-rule:nonzero;stroke:none"
             id="path98"
             inkscape:connector-curvature="0" /></g><g
           id="g100"
           transform="translate(289.5807,21.8574)"><path
             d="m 0,0 h 11.843 c 0.307,0 0.556,-0.249 0.556,-0.557 v -2.42 c 0,-0.307 -0.249,-0.556 -0.556,-0.556 H 7.687 v -13.578 c 0,-0.308 -0.249,-0.557 -0.556,-0.557 h -2.42 c -0.308,0 -0.557,0.249 -0.557,0.557 V -3.533 H 0 c -0.308,0 -0.558,0.249 -0.558,0.556 v 2.42 C -0.558,-0.249 -0.308,0 0,0"
             style="fill:#231f20;fill-opacity:1;fill-rule:nonzero;stroke:none"
             id="path102"
             inkscape:connector-curvature="0" /></g><g
           id="g104"
           transform="translate(310.7819,21.8574)"><path
             d="M 0,0 H 2.42 C 2.728,0 2.977,-0.249 2.977,-0.557 V -7.066 H 9.16 v 6.509 C 9.16,-0.249 9.409,0 9.717,0 h 2.421 c 0.307,0 0.556,-0.249 0.556,-0.557 v -16.554 c 0,-0.308 -0.249,-0.557 -0.556,-0.557 H 9.717 c -0.308,0 -0.557,0.249 -0.557,0.557 v 6.509 H 2.977 v -6.509 c 0,-0.308 -0.249,-0.557 -0.557,-0.557 H 0 c -0.308,0 -0.557,0.249 -0.557,0.557 V -0.557 C -0.557,-0.249 -0.308,0 0,0"
             style="fill:#231f20;fill-opacity:1;fill-rule:nonzero;stroke:none"
             id="path106"
             inkscape:connector-curvature="0" /></g><g
           id="g108"
           transform="translate(333.4538,21.8574)"><path
             d="m 0,0 h 2.421 c 0.308,0 0.557,-0.249 0.557,-0.557 v -16.554 c 0,-0.308 -0.249,-0.557 -0.557,-0.557 H 0 c -0.308,0 -0.557,0.249 -0.557,0.557 V -0.557 C -0.557,-0.249 -0.308,0 0,0"
             style="fill:#231f20;fill-opacity:1;fill-rule:nonzero;stroke:none"
             id="path110"
             inkscape:connector-curvature="0" /></g><g
           id="g112"
           transform="translate(356.7321,4.4404)"><path
             d="M 0,0 -7.344,11.174 V 0.306 c 0,-0.308 -0.25,-0.557 -0.556,-0.557 h -2.42 c -0.308,0 -0.557,0.249 -0.557,0.557 V 16.86 c 0,0.308 0.249,0.557 0.557,0.557 h 2.528 c 0.188,0 0.362,-0.094 0.465,-0.251 L 0.018,5.992 V 16.86 c 0,0.308 0.249,0.557 0.556,0.557 h 2.42 c 0.308,0 0.557,-0.249 0.557,-0.557 V 0.306 c 0,-0.308 -0.249,-0.557 -0.557,-0.557 H 0.466 C 0.278,-0.251 0.104,-0.156 0,0"
             style="fill:#231f20;fill-opacity:1;fill-rule:nonzero;stroke:none"
             id="path114"
             inkscape:connector-curvature="0" /></g><g
           id="g116"
           transform="translate(380.8942,11.2559)"><path
             d="m 0,0 h -2.388 c -0.307,0 -0.556,0.25 -0.556,0.558 v 1.831 c 0,0.307 0.249,0.556 0.556,0.556 h 5.365 c 0.307,0 0.556,-0.249 0.556,-0.556 v -5.878 c 0,-0.123 -0.039,-0.245 -0.115,-0.343 -1.624,-2.097 -4.133,-3.529 -6.951,-3.529 -4.889,0 -8.834,4.093 -8.834,9.129 0,5.035 3.945,9.128 8.834,9.128 1.883,0 3.622,-0.62 5.045,-1.646 C 1.77,9.064 1.816,8.698 1.619,8.45 L 0.109,6.558 c -0.18,-0.226 -0.506,-0.282 -0.744,-0.117 -0.822,0.578 -1.892,0.922 -2.898,0.922 -2.827,0 -5.301,-2.504 -5.301,-5.595 0,-3.092 2.474,-5.595 5.301,-5.595 1.344,0 2.417,0.269 3.289,1.189 C -0.088,-2.472 0,-2.252 0,-2.025 Z"
             style="fill:#231f20;fill-opacity:1;fill-rule:nonzero;stroke:none"
             id="path118"
             inkscape:connector-curvature="0" /></g></g></g></g></svg>