<?xml version="1.0" encoding="utf-8" ?>
<svg baseProfile="full" height="100%" version="1.1" width="100%" xmlns="http://www.w3.org/2000/svg" xmlns:ev="http://www.w3.org/2001/xml-events" xmlns:xlink="http://www.w3.org/1999/xlink"><defs /><path d="M 41.0,73.0 Q 56.0,54.0 81.0,54.0 Q 124.0,54.0 124.0,103.0 L 124.0,192.0 L 101.0,192.0 L 101.0,102.0 Q 101.0,88.0 94.5,81.0 Q 88.0,74.0 74.0,74.0 Q 62.0,74.0 53.5,80.0 Q 45.0,86.0 41.0,96.0 L 41.0,192.0 L 18.0,192.0 L 18.0,0.0 L 41.0,0.0 L 41.0,73.0" transform="translate(0)" /><path d="M 74.0,141.0 Q 46.0,141.0 29.0,122.5 Q 12.0,104.0 12.0,74.0 L 12.0,70.0 Q 12.0,50.0 19.5,34.0 Q 27.0,18.0 41.0,9.0 Q 55.0,0.0 71.0,0.0 Q 97.0,0.0 111.5,17.5 Q 126.0,35.0 126.0,67.0 L 126.0,77.0 L 35.0,77.0 Q 35.0,97.0 46.5,109.5 Q 58.0,122.0 75.0,122.0 Q 87.0,122.0 95.5,117.0 Q 104.0,112.0 111.0,103.0 L 125.0,114.0 Q 108.0,141.0 74.0,141.0 M 71.0,19.0 Q 57.0,19.0 47.5,29.5 Q 38.0,40.0 36.0,58.0 L 103.0,58.0 L 103.0,56.0 Q 102.0,39.0 93.5,29.0 Q 85.0,19.0 71.0,19.0" transform="translate(100)" /><path d="M 43.0,192.0 L 20.0,192.0 L 20.0,0.0 L 43.0,0.0 L 43.0,192.0" transform="translate(200)" /><path d="M 43.0,192.0 L 20.0,192.0 L 20.0,0.0 L 43.0,0.0 L 43.0,192.0" transform="translate(300)" /><path d="M 11.0,69.0 Q 11.0,49.0 19.0,33.0 Q 27.0,17.0 41.0,8.5 Q 55.0,0.0 73.0,0.0 Q 100.0,0.0 117.5,19.0 Q 135.0,38.0 135.0,70.0 L 135.0,72.0 Q 135.0,92.0 127.0,107.5 Q 119.0,123.0 105.0,132.0 Q 91.0,141.0 73.0,141.0 Q 46.0,141.0 28.5,121.5 Q 11.0,102.0 11.0,71.0 L 11.0,69.0 M 35.0,72.0 Q 35.0,94.0 45.5,108.0 Q 56.0,122.0 73.0,122.0 Q 91.0,122.0 101.0,108.0 Q 111.0,94.0 111.0,69.0 Q 111.0,47.0 100.5,33.0 Q 90.0,19.0 73.0,19.0 Q 56.0,19.0 45.5,32.5 Q 35.0,46.0 35.0,72.0" transform="translate(400)" /><path d="M 137.0,103.0 L 163.0,0.0 L 186.0,0.0 L 147.0,135.0 L 128.0,135.0 L 95.0,32.0 L 63.0,135.0 L 45.0,135.0 L 5.0,0.0 L 28.0,0.0 L 55.0,101.0 L 87.0,0.0 L 105.0,0.0 L 137.0,103.0" transform="translate(500)" /><path d="M 11.0,69.0 Q 11.0,49.0 19.0,33.0 Q 27.0,17.0 41.0,8.5 Q 55.0,0.0 73.0,0.0 Q 100.0,0.0 117.5,19.0 Q 135.0,38.0 135.0,70.0 L 135.0,72.0 Q 135.0,92.0 127.0,107.5 Q 119.0,123.0 105.0,132.0 Q 91.0,141.0 73.0,141.0 Q 46.0,141.0 28.5,121.5 Q 11.0,102.0 11.0,71.0 L 11.0,69.0 M 35.0,72.0 Q 35.0,94.0 45.5,108.0 Q 56.0,122.0 73.0,122.0 Q 91.0,122.0 101.0,108.0 Q 111.0,94.0 111.0,69.0 Q 111.0,47.0 100.5,33.0 Q 90.0,19.0 73.0,19.0 Q 56.0,19.0 45.5,32.5 Q 35.0,46.0 35.0,72.0" transform="translate(600)" /><path d="M 83.0,23.0 Q 78.0,23.0 72.0,23.0 Q 49.0,23.0 41.0,42.0 L 41.0,138.0 L 18.0,138.0 L 18.0,3.0 L 40.0,3.0 L 40.0,18.0 Q 52.0,0.0 73.0,0.0 Q 79.0,0.0 83.0,2.0 L 83.0,23.0" transform="translate(700)" /><path d="M 43.0,192.0 L 20.0,192.0 L 20.0,0.0 L 43.0,0.0 L 43.0,192.0" transform="translate(800)" /><path d="M 12.0,123.0 Q 12.0,92.0 26.5,73.0 Q 41.0,54.0 65.0,54.0 Q 89.0,54.0 103.0,70.0 L 103.0,0.0 L 126.0,0.0 L 126.0,192.0 L 105.0,192.0 L 104.0,177.0 Q 90.0,195.0 65.0,195.0 Q 42.0,195.0 27.0,175.5 Q 12.0,156.0 12.0,125.0 L 12.0,123.0 M 35.0,126.0 Q 35.0,149.0 44.5,162.0 Q 54.0,175.0 71.0,175.0 Q 93.0,175.0 103.0,155.0 L 103.0,93.0 Q 93.0,74.0 71.0,74.0 Q 54.0,74.0 44.5,87.0 Q 35.0,100.0 35.0,126.0" transform="translate(900)" /><path d="M 43.0,131.0 L 23.0,131.0 L 21.0,0.0 L 45.0,0.0 L 43.0,131.0 M 20.0,170.0 Q 20.0,165.0 23.5,161.0 Q 27.0,157.0 33.5,157.0 Q 40.0,157.0 43.5,161.0 Q 47.0,165.0 47.0,170.5 Q 47.0,176.0 43.5,179.5 Q 40.0,183.0 33.5,183.0 Q 27.0,183.0 23.5,179.5 Q 20.0,176.0 20.0,170.0" transform="translate(1000)" /></svg>