<?xml version="1.0" encoding="utf-8" ?>
<svg baseProfile="full" height="200" version="1.1" width="1665.0" xmlns="http://www.w3.org/2000/svg" xmlns:ev="http://www.w3.org/2001/xml-events" xmlns:xlink="http://www.w3.org/1999/xlink"><defs /><path d="M 125,29 L 160,29 Q 188,29 209,49 T 230,98.5 T 209.5,149 T 160,170 L 125,170 Q 113,170 110,165 Q 108,161 108,153 L 108,46 Q 108,41 108,39 T 110,34 Q 112,29 125,29 M 174,136 L 185,125.5 Q 196,115 196,99.5 T 185.5,73.5 T 160,63 L 142,63 L 142,136 L 160,136 L 174,136" fill="#000000" /><path d="M 257,94 L 273,79.5 Q 289,65 310,65 T 346.5,79.5 T 362,117 Q 362,133 354,145.5 T 334,164 T 309.5,170 T 285,163.5 T 265,145 T 257,118 L 257,94 M 303,136 L 309.5,136 Q 316,136 322,131 T 328,117 T 322.5,103 T 310,98 T 297,103 T 291,117.5 T 297,131.5 L 303,136" fill="#000000" /><path d="M 492,117 L 486.5,122.5 Q 481,128 473,128 L 428,128 Q 428,134 434.5,137.5 T 447,141 Q 458,141 464,139 L 466,138 Q 471,136 474,136 Q 480,136 485,145 Q 487,150 487,153 Q 487,170 446,170 Q 432,170 421,165.5 T 404,153 Q 392,137 392,118 Q 392,94 407.5,79.5 T 447,65 Q 473,65 486,84 Q 492,94 492,105.5 L 492,117 M 452,111 Q 459,111 459,105 Q 459,100 455.5,97.5 T 446,95 T 434,100 T 428,111 L 452,111" fill="#000000" /><path d="M 525,159 Q 522,157 522,152 T 529,137 Q 531,133 536,133 T 549,138 T 563,143 Q 575,143 575,138 Q 575,134 562,133 Q 550,131 538,124 Q 533,120 529,112.5 T 525,95 Q 525,65 567,65 Q 581,65 595,71 Q 602,74 602,79 T 597.5,90.5 T 589,97 Q 587,97 580.5,94 T 567,91 Q 555,91 555,96 T 568,103 Q 581,104 593,110 Q 599,113 602.5,119.5 T 606,136 T 602.5,153 T 592,164 Q 580,170 561.5,170 T 525,159" fill="#000000" /><path d="M 689,86 Q 689,81 689,79 T 691,74 Q 693,69 706,69 Q 715,69 719,72 Q 722,75 722,81 Q 722,82 722,86 L 722,153 Q 722,158 722,160 T 720,165 Q 718,170 705,170 Q 693,170 691,165 Q 689,162 689,160 T 689,153 L 689,86 M 719,53 L 715.5,54 Q 712,55 705.5,55 T 695.5,54 T 690.5,50 T 689,45 T 689,38.5 T 689,31.5 T 691,27 Q 693,22 706,22 Q 718,22 720,27 Q 722,30 722,32 T 722,38.5 T 722,45 T 720.5,50 L 719,53" fill="#000000" /><path d="M 810,103 L 798,102 L 798,129 Q 798,134 799.5,136 T 805.5,138 T 812.5,138.5 T 818,140 Q 822,143 822,153 Q 822,165 817,168 Q 814,169 811.5,169.5 T 805,170 Q 785,170 775,161 T 765,130 L 765,102 Q 761,103 756.5,103 T 749.5,99.5 T 747,88 T 748,76.5 T 751,72 Q 754,69 758,69 L 765,70 L 765,50 Q 765,46 765,44 T 767,39 Q 769,34 781,34 Q 794,34 797,41 Q 798,44 798,51 L 798,70 Q 806,69 810.5,69 T 817,69.5 T 822,71 Q 827,74 827,86 T 822,101 Q 819,102 817,102.5 T 810,103" fill="#000000" /><path d="M 1041,69 Q 1053,74 1053,82 Q 1053,85 1050,92 T 1045,105 L 1024,156 Q 1021,165 1014,168 Q 1012,170 1007.5,170 T 998.5,166.5 T 993,159 L 992,156 Q 990,152 980,126 Q 978,131 974.5,141.5 T 970,154.5 T 968.5,158 T 966.5,161 T 964,165 Q 959,170 953,170 T 943,166.5 T 938,159 L 909,89 Q 907,83 907,81 Q 907,74 918,69 Q 924,67 928,67 T 934,68.5 T 937,71.5 T 939,75 Q 942,83 953,111 L 964,80 Q 965,76 968,73 Q 974,68 979.5,68 T 989,71 T 995,77 L 997,80 Q 1006,107 1008,111 L 1020,79 Q 1024,67 1033,67 Q 1037,67 1041,69" fill="#000000" /><path d="M 1085,94 L 1101,79.5 Q 1117,65 1138,65 T 1174.5,79.5 T 1190,117 Q 1190,133 1182,145.5 T 1162,164 T 1137.5,170 T 1113,163.5 T 1093,145 T 1085,118 L 1085,94 M 1131,136 L 1137.5,136 Q 1144,136 1150,131 T 1156,117 T 1150.5,103 T 1138,98 T 1125,103 T 1119,117.5 T 1125,131.5 L 1131,136" fill="#000000" /><path d="M 1295,71 L 1297.5,74 Q 1300,77 1300,83 T 1296.5,96.5 T 1286,104 Q 1282,104 1279,102 T 1270.5,100 T 1260.5,104 T 1256,113 L 1256,153 Q 1256,158 1256,160 T 1254,165 Q 1251,170 1239,170 Q 1230,170 1226,167 Q 1223,164 1223,158 Q 1223,157 1223,153 L 1223,86 Q 1223,81 1223,79 T 1225,74 Q 1227,69 1240,69 Q 1251,69 1254,73 Q 1256,76 1256,80 Q 1257,78 1259,76 T 1267,71 T 1277.5,68 T 1285,68.5 T 1291.5,70 L 1295,71" fill="#000000" /><path d="M 1389,118 L 1415,139 Q 1420,143 1421,145.5 T 1422,150 Q 1422,154 1416,162 T 1405,170 T 1393,165 L 1391,163 Q 1387,160 1377.5,150.5 T 1363,138 L 1363,152 Q 1363,157 1363,159 T 1361,164 Q 1359,169 1346,169 Q 1334,169 1332,164 Q 1330,161 1330,159 T 1330,152 L 1330,37 Q 1330,33 1330,30.5 T 1332,25 Q 1334,20 1347,20 Q 1356,20 1360,23 Q 1363,26 1363,32 Q 1363,34 1363,37 L 1363,98 Q 1367,95 1374,88 T 1384,79 L 1387,77 Q 1393,72 1398,72 T 1409,79.5 T 1415,91.5 T 1408,102 L 1389,118" fill="#000000" /><path d="M 1477,106 L 1477,104 Q 1477,96 1482,91 T 1492.5,84.5 T 1502.5,79.5 T 1507,69.5 T 1503.5,60 T 1493,57 T 1482.5,59 T 1479,63 L 1478,66 Q 1476,71 1474,73.5 T 1468,76 T 1458,73 Q 1447,69 1447,62 Q 1447,60 1448,57 T 1450,52 T 1454,45 T 1461.5,36 T 1474,29 T 1491,26 Q 1512,26 1525,39 T 1538,69 Q 1538,77 1535,84 T 1527,96 Q 1519,104 1512,106 L 1509,107 Q 1509,110 1508.5,112 T 1506.5,116 T 1501.5,119 T 1492.5,120 T 1483.5,119 T 1479,115.5 T 1477.5,111.5 T 1477,106 M 1478,137 L 1482,135.5 Q 1486,134 1494.5,134 T 1506.5,138 T 1510,153 Q 1510,160 1508,164 T 1502.5,169 T 1490.5,170 T 1478,166 Q 1474,163 1474,155 L 1474,152 Q 1474,148 1474.5,145.5 T 1476.5,140 L 1478,137" fill="#000000" /></svg>