<?xml version="1.0" ?>
<svg baseProfile="full" height="600px" version="1.1" viewBox="1.4679999999999893 -167.232 1654.064 1998.464" width="497px" xmlns="http://www.w3.org/2000/svg" xmlns:ev="http://www.w3.org/2001/xml-events" xmlns:xlink="http://www.w3.org/1999/xlink">
	<defs/>
	<path d="M 884.0,1664.0 Q 554.0,1664.0 347.0,1449.5 Q 140.0,1235.0 140.0,876.0 L 140.0,826.0 L 140.0,587.0 L 324.0,212.0 L 656.0,0.0 L 849.0,0.0 Q 1166.0,0.0 1341.5,211.0 Q 1517.0,422.0 1517.0,815.0 L 1517.0,932.0 L 417.0,932.0 Q 423.0,1158.0 557.5,1297.5 Q 692.0,1437.0 899.0,1437.0 Q 1046.0,1437.0 1148.0,1378.5 Q 1250.0,1320.0 1326.0,1224.0 L 1496.0,1354.0 Q 1292.0,1664.0 884.0,1664.0 M 849.0,228.0 Q 681.0,228.0 567.0,353.0 Q 453.0,478.0 426.0,704.0 L 1239.0,704.0 L 1239.0,683.0 Q 1227.0,466.0 1125.0,347.0 Q 1023.0,228.0 849.0,228.0" fill="none" stroke="#000000" stroke-width="1.6640000000000001"/>
</svg>
