<?xml version="1.0" encoding="utf-8" ?>
<svg baseProfile="full" height="200" version="1.1" width="659.0" xmlns="http://www.w3.org/2000/svg" xmlns:ev="http://www.w3.org/2001/xml-events" xmlns:xlink="http://www.w3.org/1999/xlink"><defs /><path d="M 100,0 L 559,0 L 659,100 L 559,200 L 100,200 L 0,200 L 100,100 L 0,0 L 100,0 M 181,83 Q 175,83 172,85 Q 170,86 169,89 T 168,97 T 168.5,105 T 171.5,109.5 T 180,111 L 195,111 L 195,132 Q 187,136 176,136 Q 162,136 150.5,124.5 T 139,96 T 150,69 T 176,59 Q 187,59 195,64 T 207,69 Q 213,69 221,59 Q 225,53 225,48.5 T 220,40 Q 200,25 177,25 Q 148,25 126.5,45.5 T 105,96.5 T 126,148.5 T 176,170 Q 208,170 224,153 Q 229,148 229,142 L 229,99 Q 229,92 227,89 Q 225,84 215,83 L 181,83 M 354,32 L 352.5,35 Q 351,38 351,46 L 351,111 Q 337,93 297,38 Q 293,33 292,33 Q 291,32 287.5,30.5 T 278.5,29 T 269,30.5 T 263.5,35 T 262,46 L 262,153 Q 262,157 262,159.5 T 264,165 Q 266,170 278,170 Q 291,170 293,165 Q 295,162 295,160 T 295,153 L 295,90 Q 309,108 352,165 Q 354,168 357,169 T 367,170 Q 380,170 382,165 Q 384,162 384.5,160 T 385,153 L 385,47 Q 385,40 383,37 Q 383,34 381,32.5 T 376,30 T 367.5,29 T 358,30.5 L 354,32 M 481,136 L 467,136 L 449,136 L 449,63 L 467,63 Q 482,63 492.5,73.5 T 503,99.5 T 492,125.5 L 481,136 M 432,29 Q 419,29 417,34 Q 415,37 415,39 T 415,46 L 415,153 Q 415,161 417,165 Q 420,170 432,170 L 467,170 Q 496,170 516.5,149 T 537,98.5 T 516,49 T 467,29 L 432,29" fill="#000000" /></svg>