<?xml version="1.0" encoding="utf-8" ?>
<svg baseProfile="full" height="250" version="1.1" width="600.0" xmlns="http://www.w3.org/2000/svg" xmlns:ev="http://www.w3.org/2001/xml-events" xmlns:xlink="http://www.w3.org/1999/xlink"><defs /><path d="M 100,0 L 500,0 L 600,100 L 500,200 L 100,200 L 50,200 L 50,0 L 100,0 M 217,150 L 217,100 L 167,100 L 167,115 L 199,115 L 199,145 Q 194,151 186.5,153 T 168,155 Q 151,155 140.5,141.5 T 130,105 L 130,94 Q 130,70 139,57 T 166,44 Q 194,44 199,72 L 217,72 Q 214,51 201,40.5 T 166,30 Q 140,30 125.5,47 T 111,94 L 111,106 Q 112,125 119,139.5 T 139,162 T 168,170 Q 185,170 197.5,165 T 217,150 M 357,170 L 357,33 L 339,33 L 339,139 L 270,33 L 252,33 L 252,170 L 270,170 L 270,65 L 339,170 L 357,170 M 405,48 L 426,48 Q 446,48 457,61 T 468,98 L 468,105 Q 468,129 456.5,142 T 424,155 L 405,155 L 405,48 M 387,170 L 425,170 Q 443,170 457,162 T 478.5,139.5 T 486,106 L 486,97 Q 485,78 478,63.5 T 457,41 T 425,33 L 387,33 L 387,170" fill="#000000" /></svg>