<?xml version="1.0" encoding="utf-8" ?>
<svg baseProfile="full" height="200" version="1.1" width="663.0" xmlns="http://www.w3.org/2000/svg" xmlns:ev="http://www.w3.org/2001/xml-events" xmlns:xlink="http://www.w3.org/1999/xlink"><defs /><path d="M 100,0 L 563,0 A 100,100 180 0,1 563,200 L 100,200 A 100,100 180 0,1 100,0 M 173,83 L 186,110 L 161,110 L 173,83 M 189,37 Q 184,27 174,27 Q 169,27 164.5,30 T 158,37 L 106,144 Q 103,151 103,154 Q 103,161 114,166 Q 121,170 124.5,170 T 130.5,168 T 134,164.5 T 137,159 L 147,138 L 200,138 L 210,159 Q 212,163 213,164.5 T 216.5,168 T 222.5,170 T 233,167 Q 244,161 244,154 Q 244,151 241,144 L 189,37 M 345,136 L 331,136 L 313,136 L 313,63 L 331,63 Q 346,63 356.5,73.5 T 367,99.5 T 356,125.5 L 345,136 M 296,29 Q 283,29 281,34 Q 279,37 279,39 T 279,46 L 279,153 Q 279,161 281,165 Q 284,170 296,170 L 331,170 Q 360,170 380.5,149 T 401,98.5 T 380,49 T 331,29 L 296,29 M 465,96 L 465,62 L 489,62 Q 495,62 500.5,66.5 T 506,79.5 T 500.5,92 T 489,96 L 465,96 M 538,145 Q 530,125 525,115 Q 540,101 540,79 Q 540,67 535,57 T 522,41 Q 506,28 489,28 L 448,28 Q 435,28 433,33 Q 431,36 431,38.5 T 431,45 L 431,152 Q 431,158 432,162 Q 434,169 448,169 Q 460,169 463,164 Q 464,161 464.5,158.5 T 465,152 L 465,130 L 489,130 L 495,130 Q 508,161 510,165 Q 511,167 513.5,168.5 T 519.5,170 T 529,167 Q 541,162 541,155 Q 541,152 538,145" fill="#000000" /></svg>