<?xml version="1.0" encoding="utf-8" ?>
<svg baseProfile="full" height="250" version="1.1" width="2555.0" xmlns="http://www.w3.org/2000/svg" xmlns:ev="http://www.w3.org/2001/xml-events" xmlns:xlink="http://www.w3.org/1999/xlink"><defs /><path d="M 156,107 Q 133,100 122.5,90.5 T 112,67 Q 112,51 125,40.5 T 158,30 Q 172,30 183,35 T 200,50 T 206,71 L 188,71 Q 188,59 180.5,51.5 T 158,44 Q 145,44 137.5,50 T 130,67 Q 130,75 137,80.5 T 161,91 T 187.5,102 T 202,115.5 T 207,133 Q 207,150 194,160 T 159,170 Q 145,170 133,164.5 T 114.5,149.5 T 108,128 L 126,128 Q 126,141 135,148 T 159,155 Q 173,155 181,149.5 T 189,133.5 T 182,117.5 T 156,107" fill="#000000" /><path d="M 283,156 Q 292,156 299,150 T 307,136 L 323,136 Q 323,145 317.5,152.5 T 302.5,165 T 283,170 Q 262,170 250,156 T 238,118 L 238,115 Q 238,100 243.5,88.5 T 259,71 T 283,65 Q 300,65 311,75 T 323,101 L 307,101 Q 306,92 299.5,85.5 T 283,79 Q 270,79 262.5,88.5 T 255,116 L 255,119 Q 255,137 262,146.5 T 283,156" fill="#000000" /><path d="M 353,116 Q 353,101 358.5,89.5 T 374.5,71.5 T 399,65 Q 419,65 432,79 T 445,117 L 445,118 Q 445,133 439.5,145 T 423,163.5 T 399,170 Q 378,170 365.5,155.5 T 353,118 L 353,116 M 370,118 Q 370,135 378,145.5 T 399,156 T 420,145.5 T 428,116 Q 428,100 420,89.5 T 399,79 T 378,89 T 370,118" fill="#000000" /><path d="M 475,116 Q 475,101 480.5,89.5 T 496.5,71.5 T 521,65 Q 541,65 554,79 T 567,117 L 567,118 Q 567,133 561.5,145 T 545,163.5 T 521,170 Q 500,170 487.5,155.5 T 475,118 L 475,116 M 492,118 Q 492,135 500,145.5 T 521,156 T 542,145.5 T 550,116 Q 550,100 542,89.5 T 521,79 T 500,89 T 492,118" fill="#000000" /><path d="M 687,118 Q 687,142 676.5,156 T 648,170 Q 628,170 618,156 L 617,168 L 601,168 L 601,24 L 618,24 L 618,78 Q 629,65 647.5,65 T 676.5,79 T 687,117 L 687,118 M 670,116 Q 670,99 663,89 T 643,79 Q 626,79 618,95 L 618,139 Q 626,155 643,155 Q 656,155 663,145.5 T 670,116" fill="#000000" /><path d="M 750,144 L 774,68 L 793,68 L 752,185 Q 742,210 722,210 L 718,210 L 712,208 L 712,194 L 717,195 Q 725,195 730,191.5 T 738,178 L 742,168 L 706,68 L 725,68 L 750,144" fill="#000000" /><path d="M 910,33 L 955,145 L 999,33 L 1023,33 L 1023,170 L 1005,170 L 1005,117 L 1006,59 L 962,170 L 948,170 L 903,60 L 905,117 L 905,170 L 887,170 L 887,33 L 910,33" fill="#000000" /><path d="M 1091,156 Q 1100,156 1107,150 T 1115,136 L 1131,136 Q 1131,145 1125.5,152.5 T 1110.5,165 T 1091,170 Q 1070,170 1058,156 T 1046,118 L 1046,115 Q 1046,100 1051.5,88.5 T 1067,71 T 1091,65 Q 1108,65 1119,75 T 1131,101 L 1115,101 Q 1114,92 1107.5,85.5 T 1091,79 Q 1078,79 1070.5,88.5 T 1063,116 L 1063,119 Q 1063,137 1070,146.5 T 1091,156" fill="#000000" /><path d="M 1168,170 L 1168,33 L 1206,33 Q 1224,33 1238,41 T 1259,63.5 T 1267,97 L 1267,106 Q 1267,125 1259.5,139.5 T 1238,162 T 1206,170 L 1168,170 M 1186,48 L 1186,155 L 1205,155 Q 1226,155 1237.5,142 T 1249,105 L 1249,98 Q 1249,74 1238,61 T 1207,48 L 1186,48" fill="#000000" /><path d="M 1290,116 Q 1290,101 1295.5,89.5 T 1311.5,71.5 T 1336,65 Q 1356,65 1369,79 T 1382,117 L 1382,118 Q 1382,133 1376.5,145 T 1360,163.5 T 1336,170 Q 1315,170 1302.5,155.5 T 1290,118 L 1290,116 M 1307,118 Q 1307,135 1315,145.5 T 1336,156 T 1357,145.5 T 1365,116 Q 1365,100 1357,89.5 T 1336,79 T 1315,89 T 1307,118" fill="#000000" /><path d="M 1412,116 Q 1412,101 1417.5,89.5 T 1433.5,71.5 T 1458,65 Q 1478,65 1491,79 T 1504,117 L 1504,118 Q 1504,133 1498.5,145 T 1482,163.5 T 1458,170 Q 1437,170 1424.5,155.5 T 1412,118 L 1412,116 M 1429,118 Q 1429,135 1437,145.5 T 1458,156 T 1479,145.5 T 1487,116 Q 1487,100 1479,89.5 T 1458,79 T 1437,89 T 1429,118" fill="#000000" /><path d="M 1624,118 Q 1624,142 1613.5,156 T 1585,170 Q 1565,170 1555,156 L 1554,168 L 1538,168 L 1538,24 L 1555,24 L 1555,78 Q 1566,65 1584.5,65 T 1613.5,79 T 1624,117 L 1624,118 M 1607,116 Q 1607,99 1600,89 T 1580,79 Q 1563,79 1555,95 L 1555,139 Q 1563,155 1580,155 Q 1593,155 1600,145.5 T 1607,116" fill="#000000" /><path d="M 1673,170 L 1656,170 L 1656,69 L 1673,69 L 1673,170 M 1654,42 Q 1654,37 1656.5,34.5 T 1664.5,32 T 1672.5,34.5 T 1675,41.5 T 1672.5,48.5 T 1664.5,51 T 1656.5,48.5 T 1654,42" fill="#000000" /><path d="M 1747,170 Q 1727,170 1714,156.5 T 1701,120 L 1701,117 Q 1701,102 1706.5,90 T 1722.5,71.5 T 1745,65 Q 1765,65 1776,78 T 1787,115 L 1787,122 L 1718,122 Q 1718,137 1726.5,146.5 T 1748,156 Q 1757,156 1763.5,152 T 1775,142 L 1785,150 Q 1773,170 1747,170 M 1745,79 Q 1735,79 1727.5,86.5 T 1719,108 L 1769,108 L 1769,107 Q 1769,93 1762.5,86 T 1745,79" fill="#000000" /><path d="M 1821,195 L 1811,188 Q 1820,176 1820,163 L 1820,147 L 1837,147 L 1837,161 Q 1837,171 1832.5,180 T 1821,195" fill="#000000" /><path d="M 1969,170 Q 1949,170 1936,156.5 T 1923,120 L 1923,117 Q 1923,102 1928.5,90 T 1944.5,71.5 T 1967,65 Q 1987,65 1998,78 T 2009,115 L 2009,122 L 1940,122 Q 1940,137 1948.5,146.5 T 1970,156 Q 1979,156 1985.5,152 T 1997,142 L 2007,150 Q 1995,170 1969,170 M 1967,79 Q 1957,79 1949.5,86.5 T 1941,108 L 1991,108 L 1991,107 Q 1991,93 1984.5,86 T 1967,79" fill="#000000" /><path d="M 2102,141 Q 2102,134 2097,130 T 2078.5,123.5 T 2057.5,117 T 2046,107.5 T 2042,94 Q 2042,82 2052.5,73.5 T 2080,65 T 2108,73.5 T 2119,96 L 2101,96 Q 2101,89 2095,84 T 2080,79 Q 2070,79 2065,83 T 2060,94 Q 2060,100 2065,103 T 2083,109 T 2104,116 T 2116,126 T 2120,140 Q 2120,153 2109,161.5 T 2080,170 Q 2068,170 2059,165.5 T 2044.5,153.5 T 2039,137 L 2056,137 Q 2057,145 2063.5,150.5 T 2080,156 T 2096,152 T 2102,141" fill="#000000" /><path d="M 2150,119 Q 2150,96 2161,82 T 2190,68 T 2219,80 L 2219,70 L 2235,70 L 2235,210 L 2218,210 L 2218,162 Q 2208,173 2190,173 T 2161,158.5 T 2150,121 L 2150,119 M 2167,121 Q 2167,139 2174.5,149 T 2194,159 Q 2210,159 2218,145 L 2218,95 Q 2210,82 2195,82 Q 2182,82 2174.5,92 T 2167,121" fill="#000000" /><path d="M 2270,160 Q 2270,155 2272.5,152 T 2280.5,149 T 2288.5,152 T 2291,160 Q 2291,164 2288.5,167 T 2280.5,170 T 2272.5,167 T 2270,160" fill="#000000" /><path d="M 2397,34 L 2379,80 L 2363,80 L 2391,11 L 2403,11 L 2431,80 L 2415,80 L 2397,34" fill="#000000" /></svg>