<?xml version="1.0" encoding="utf-8" ?>
<svg baseProfile="full" height="200" version="1.1" width="1023.0" xmlns="http://www.w3.org/2000/svg" xmlns:ev="http://www.w3.org/2001/xml-events" xmlns:xlink="http://www.w3.org/1999/xlink"><defs /><path d="M 30.0,55.0 Q 42.0,41.0 60.0,41.0 Q 93.0,41.0 93.0,77.0 L 93.0,144.0 L 76.0,144.0 L 76.0,77.0 Q 75.0,66.0 70.5,60.5 Q 66.0,55.0 55.0,55.0 Q 47.0,55.0 40.5,59.5 Q 34.0,64.0 30.0,72.0 L 30.0,144.0 L 13.0,144.0 L 13.0,0.0 L 30.0,0.0 L 30.0,55.0" fill="#000000" transform="translate(0)" /><path d="M 55.0,105.0 Q 35.0,105.0 22.0,91.5 Q 9.0,78.0 9.0,55.0 L 9.0,52.0 Q 9.0,37.0 14.5,25.0 Q 20.0,13.0 30.5,6.5 Q 41.0,0.0 53.0,0.0 Q 73.0,0.0 84.0,13.0 Q 95.0,26.0 95.0,50.0 L 95.0,57.0 L 26.0,57.0 Q 26.0,72.0 34.5,81.5 Q 43.0,91.0 56.0,91.0 Q 65.0,91.0 71.5,87.0 Q 78.0,83.0 83.0,77.0 L 93.0,85.0 Q 81.0,105.0 55.0,105.0 M 53.0,14.0 Q 43.0,14.0 35.5,21.5 Q 28.0,29.0 27.0,43.0 L 77.0,43.0 L 77.0,42.0 Q 77.0,28.0 70.5,21.0 Q 64.0,14.0 53.0,14.0" fill="#000000" transform="translate(110.0)" /><path d="M 32.0,144.0 L 15.0,144.0 L 15.0,0.0 L 32.0,0.0 L 32.0,144.0" fill="#000000" transform="translate(226.0)" /><path d="M 32.0,144.0 L 15.0,144.0 L 15.0,0.0 L 32.0,0.0 L 32.0,144.0" fill="#000000" transform="translate(273.0)" /><path d="M 9.0,51.0 Q 9.0,36.0 14.5,24.5 Q 20.0,13.0 30.5,6.5 Q 41.0,0.0 55.0,0.0 Q 75.0,0.0 88.0,14.0 Q 101.0,28.0 101.0,52.0 L 101.0,53.0 Q 101.0,68.0 95.5,80.0 Q 90.0,92.0 79.0,98.5 Q 68.0,105.0 55.0,105.0 Q 34.0,105.0 21.5,90.5 Q 9.0,76.0 9.0,53.0 L 9.0,51.0 M 26.0,53.0 Q 26.0,70.0 34.0,80.5 Q 42.0,91.0 55.0,91.0 Q 68.0,91.0 76.0,80.5 Q 84.0,70.0 84.0,51.0 Q 84.0,35.0 76.0,24.5 Q 68.0,14.0 55.0,14.0 Q 42.0,14.0 34.0,24.0 Q 26.0,34.0 26.0,53.0" fill="#000000" transform="translate(320.0)" /><path d="M 103.0,77.0 L 122.0,0.0 L 140.0,0.0 L 110.0,101.0 L 96.0,101.0 L 72.0,24.0 L 48.0,101.0 L 33.0,101.0 L 4.0,0.0 L 21.0,0.0 L 41.0,75.0 L 65.0,0.0 L 79.0,0.0 L 103.0,77.0" fill="#000000" transform="translate(442.0)" /><path d="M 9.0,51.0 Q 9.0,36.0 14.5,24.5 Q 20.0,13.0 30.5,6.5 Q 41.0,0.0 55.0,0.0 Q 75.0,0.0 88.0,14.0 Q 101.0,28.0 101.0,52.0 L 101.0,53.0 Q 101.0,68.0 95.5,80.0 Q 90.0,92.0 79.0,98.5 Q 68.0,105.0 55.0,105.0 Q 34.0,105.0 21.5,90.5 Q 9.0,76.0 9.0,53.0 L 9.0,51.0 M 26.0,53.0 Q 26.0,70.0 34.0,80.5 Q 42.0,91.0 55.0,91.0 Q 68.0,91.0 76.0,80.5 Q 84.0,70.0 84.0,51.0 Q 84.0,35.0 76.0,24.5 Q 68.0,14.0 55.0,14.0 Q 42.0,14.0 34.0,24.0 Q 26.0,34.0 26.0,53.0" fill="#000000" transform="translate(608.0)" /><path d="M 62.0,17.0 Q 58.0,16.0 54.0,16.0 Q 37.0,16.0 30.0,31.0 L 30.0,103.0 L 13.0,103.0 L 13.0,2.0 L 30.0,2.0 L 30.0,13.0 Q 39.0,0.0 54.0,0.0 Q 60.0,0.0 62.0,1.0 L 62.0,17.0" fill="#000000" transform="translate(730.0)" /><path d="M 32.0,144.0 L 15.0,144.0 L 15.0,0.0 L 32.0,0.0 L 32.0,144.0" fill="#000000" transform="translate(809.0)" /><path d="M 9.0,92.0 Q 9.0,69.0 20.0,55.0 Q 31.0,41.0 49.0,41.0 Q 67.0,41.0 77.0,53.0 L 77.0,0.0 L 95.0,0.0 L 95.0,144.0 L 79.0,144.0 L 78.0,133.0 Q 67.0,146.0 49.0,146.0 Q 31.0,146.0 20.0,131.5 Q 9.0,117.0 9.0,94.0 L 9.0,92.0 M 26.0,94.0 Q 26.0,112.0 33.5,121.5 Q 41.0,131.0 53.0,131.0 Q 70.0,131.0 77.0,116.0 L 77.0,70.0 Q 69.0,55.0 53.0,55.0 Q 41.0,55.0 33.5,65.0 Q 26.0,75.0 26.0,94.0" fill="#000000" transform="translate(856.0)" /><path d="M 33.0,98.0 L 17.0,98.0 L 16.0,0.0 L 34.0,0.0 L 33.0,98.0 M 15.0,128.0 Q 15.0,124.0 17.5,121.0 Q 20.0,118.0 25.0,118.0 Q 30.0,118.0 33.0,121.0 Q 36.0,124.0 36.0,128.0 Q 36.0,132.0 33.0,135.0 Q 30.0,138.0 25.0,138.0 Q 20.0,138.0 17.5,135.0 Q 15.0,132.0 15.0,128.0" fill="#000000" transform="translate(972.0)" /></svg>